<svg width="72" height="72" viewBox="0 0 72 72" fill="none" xmlns="http://www.w3.org/2000/svg">
<g clip-path="url(#clip0_1846_1918)">
<path d="M72 49.5792C72 50.4351 72 51.2911 71.995 52.1483C71.9912 52.869 71.9824 53.5897 71.9623 54.3105C71.9197 55.8797 71.8256 57.4651 71.5432 59.0169C71.2571 60.5936 70.7903 62.0611 70.0512 63.4939C69.3272 64.9006 68.3811 66.1882 67.2517 67.3047C66.1224 68.4212 64.8186 69.3577 63.3956 70.0735C61.9475 70.8029 60.4643 71.2656 58.8694 71.5485C57.2984 71.8276 55.6959 71.9206 54.1073 71.9628C51.053 72 50.1872 72 49.3214 72H32.6257H22.6799C19.3521 71.9901 18.623 71.9826 17.8939 71.9628C16.3053 71.9206 14.7029 71.8276 13.1318 71.5485C11.5369 71.2656 10.0537 70.8029 8.60565 70.0735C7.18142 69.3577 5.8789 68.4212 4.74955 67.3047C3.6202 66.1882 2.67405 64.9006 1.94876 63.4939C1.21091 62.0611 0.744117 60.5936 0.45676 59.0169C0.174422 57.4651 0.0815642 55.8797 0.0388999 54.3105C0.0188225 53.5897 0.0100387 52.869 0.00627417 52.1483C0 51.2911 0 50.4351 0 49.5792V39.747V32.253V22.4208C0 21.5649 0 20.7077 0.00627417 19.853C0.0100387 19.131 0.0188225 18.4103 0.0388999 17.6895C0.0815642 16.1191 0.174422 14.5349 0.45676 12.9818C0.744117 11.4052 1.21091 9.93889 1.94876 8.50611C2.67405 7.09814 3.6202 5.8105 4.74955 4.69529C5.8789 3.5776 7.18142 2.64227 8.60565 1.9265C10.0537 1.19708 11.5369 0.734376 13.1318 0.451542C14.7029 0.17243 16.3053 0.079392 17.8939 0.037215C20.9482 0 21.814 0 22.6799 0H32.6257H48.6111L39.3743 0.0037215L49.3214 0C52.6479 0.009924 53.377 0.017367 54.1073 0.037215C55.6959 0.079392 57.2984 0.17243 58.8694 0.451542C60.4643 0.734376 61.9475 1.19708 63.3956 1.9265C64.8186 2.64227 66.1224 3.5776 67.2517 4.69529C68.3811 5.8105 69.3272 7.09814 70.0512 8.50611C70.7903 9.93889 71.2571 11.4052 71.5432 12.9818C71.8256 14.5349 71.9197 16.1191 71.9623 17.6895C71.9824 18.4103 71.9912 19.131 71.995 19.853C72 20.7077 72 21.5649 72 22.4208V32.253V39.747V49.5792Z" fill="#00837C"/>
<path d="M36.3149 42.9901C32.3964 42.9901 29.2199 39.8606 29.2199 36C29.2199 32.1394 32.3964 29.0098 36.3149 29.0098C39.6412 29.0098 42.4319 31.2656 43.1996 34.3087L57 30.9187C54.6939 21.7761 46.3082 15 36.3149 15C35.8743 15 35.4373 15.0148 35.0032 15.0406V27.8408L30.9865 15.6615C30.133 15.8779 29.3001 16.1451 28.4915 16.4598L32.5083 28.6394L24.8699 18.2815C24.1307 18.746 23.4221 19.2538 22.7486 19.802L30.3862 30.159L19.874 22.6341C19.3177 23.2977 18.8022 23.9957 18.3308 24.7241L28.844 32.2496L16.4817 28.2921C16.1624 29.0888 15.8912 29.9094 15.6714 30.7504L28.0334 34.7077H15.0414C15.015 35.1353 15 35.5659 15 36C15 36.434 15.0151 36.8648 15.0414 37.2922H28.0333L15.6714 41.2495C15.8912 42.0905 16.1624 42.9112 16.4817 43.7079L28.844 39.7503L18.3308 47.2758C18.8022 48.0042 19.3177 48.7023 19.874 49.3658L30.386 41.8412L22.7486 52.1979C23.4221 52.7461 24.1307 53.2539 24.8699 53.7184L32.5084 43.3603L28.4915 55.5402C29.3001 55.8548 30.133 56.122 30.9865 56.3384L35.0032 44.1591V56.9592C35.4373 56.9852 35.8743 57 36.3149 57C46.3081 57 54.6938 50.2238 57 41.0813L43.1996 37.6913C42.4318 40.7345 39.6412 42.9901 36.3149 42.9901Z" fill="white"/>
</g>
<defs>
<clipPath id="clip0_1846_1918">
<rect width="72" height="72" fill="white"/>
</clipPath>
</defs>
</svg>
