<svg width="1534" height="245" viewBox="0 0 1534 245" fill="none" xmlns="http://www.w3.org/2000/svg">
<g clip-path="url(#clip0_1750_1814)">
<rect y="55" width="194.8" height="96.4525" rx="38.581" fill="#0D99FF"/>
<path d="M70.5643 103.182C70.5643 104.451 70.3238 105.53 69.8427 106.42C69.3654 107.311 68.7139 107.991 67.8882 108.46C67.0662 108.926 66.1419 109.159 65.1154 109.159C64.0813 109.159 63.1533 108.924 62.3313 108.455C61.5094 107.985 60.8597 107.305 60.3825 106.415C59.9052 105.525 59.6666 104.447 59.6666 103.182C59.6666 101.913 59.9052 100.833 60.3825 99.9432C60.8597 99.053 61.5094 98.375 62.3313 97.9091C63.1533 97.4394 64.0813 97.2045 65.1154 97.2045C66.1419 97.2045 67.0662 97.4394 67.8882 97.9091C68.7139 98.375 69.3654 99.053 69.8427 99.9432C70.3238 100.833 70.5643 101.913 70.5643 103.182ZM68.07 103.182C68.07 102.36 67.9469 101.667 67.7007 101.102C67.4582 100.538 67.1154 100.11 66.6722 99.8182C66.2291 99.5265 65.7101 99.3807 65.1154 99.3807C64.5207 99.3807 64.0018 99.5265 63.5586 99.8182C63.1154 100.11 62.7707 100.538 62.5245 101.102C62.2821 101.667 62.1609 102.36 62.1609 103.182C62.1609 104.004 62.2821 104.697 62.5245 105.261C62.7707 105.826 63.1154 106.254 63.5586 106.545C64.0018 106.837 64.5207 106.983 65.1154 106.983C65.7101 106.983 66.2291 106.837 66.6722 106.545C67.1154 106.254 67.4582 105.826 67.7007 105.261C67.9469 104.697 68.07 104.004 68.07 103.182ZM72.1653 112.273V100.273H74.5516V101.739H74.6596C74.7657 101.504 74.9191 101.265 75.1198 101.023C75.3244 100.777 75.5895 100.572 75.9153 100.409C76.2448 100.242 76.6539 100.159 77.1426 100.159C77.7789 100.159 78.366 100.326 78.9039 100.659C79.4418 100.989 79.8717 101.487 80.1937 102.153C80.5157 102.816 80.6766 103.648 80.6766 104.648C80.6766 105.621 80.5194 106.443 80.2051 107.114C79.8944 107.78 79.4702 108.286 78.9323 108.631C78.3982 108.972 77.7998 109.142 77.1369 109.142C76.6672 109.142 76.2676 109.064 75.938 108.909C75.6123 108.754 75.3452 108.559 75.1369 108.324C74.9285 108.085 74.7694 107.845 74.6596 107.602H74.5857V112.273H72.1653ZM74.5346 104.636C74.5346 105.155 74.6066 105.608 74.7505 105.994C74.8944 106.381 75.1028 106.682 75.3755 106.898C75.6482 107.11 75.9797 107.216 76.3698 107.216C76.7638 107.216 77.0971 107.108 77.3698 106.892C77.6426 106.672 77.849 106.369 77.9891 105.983C78.1331 105.593 78.2051 105.144 78.2051 104.636C78.2051 104.133 78.135 103.689 77.9948 103.307C77.8547 102.924 77.6482 102.625 77.3755 102.409C77.1028 102.193 76.7676 102.085 76.3698 102.085C75.9759 102.085 75.6426 102.189 75.3698 102.398C75.1009 102.606 74.8944 102.902 74.7505 103.284C74.6066 103.667 74.5346 104.117 74.5346 104.636ZM86.0916 109.17C85.1938 109.17 84.4211 108.989 83.7734 108.625C83.1294 108.258 82.6332 107.739 82.2847 107.068C81.9362 106.394 81.762 105.597 81.762 104.676C81.762 103.778 81.9362 102.991 82.2847 102.312C82.6332 101.634 83.1237 101.106 83.7563 100.727C84.3927 100.348 85.1389 100.159 85.995 100.159C86.5707 100.159 87.1067 100.252 87.6029 100.438C88.1029 100.619 88.5385 100.894 88.9097 101.261C89.2847 101.629 89.5764 102.091 89.7847 102.648C89.9931 103.201 90.0972 103.848 90.0972 104.591V105.256H82.7279V103.756H87.8188C87.8188 103.407 87.7431 103.098 87.5916 102.83C87.44 102.561 87.2298 102.35 86.9609 102.199C86.6957 102.044 86.387 101.966 86.0347 101.966C85.6673 101.966 85.3416 102.051 85.0575 102.222C84.7772 102.388 84.5575 102.614 84.3984 102.898C84.2393 103.178 84.1578 103.491 84.1541 103.835V105.261C84.1541 105.693 84.2336 106.066 84.3927 106.381C84.5556 106.695 84.7847 106.938 85.0802 107.108C85.3756 107.278 85.726 107.364 86.1313 107.364C86.4003 107.364 86.6465 107.326 86.87 107.25C87.0934 107.174 87.2847 107.061 87.4438 106.909C87.6029 106.758 87.7241 106.572 87.8075 106.352L90.0461 106.5C89.9325 107.038 89.6995 107.508 89.3472 107.909C88.9987 108.307 88.548 108.617 87.995 108.841C87.4457 109.061 86.8112 109.17 86.0916 109.17ZM93.9212 103.955V109H91.5008V100.273H93.8076V101.812H93.9099C94.1031 101.305 94.4269 100.903 94.8815 100.608C95.336 100.309 95.8871 100.159 96.5349 100.159C97.1409 100.159 97.6693 100.292 98.1201 100.557C98.5709 100.822 98.9212 101.201 99.1712 101.693C99.4212 102.182 99.5462 102.765 99.5462 103.443V109H97.1258V103.875C97.1296 103.341 96.9932 102.924 96.7167 102.625C96.4402 102.322 96.0595 102.17 95.5746 102.17C95.2489 102.17 94.961 102.241 94.711 102.381C94.4648 102.521 94.2716 102.725 94.1315 102.994C93.9951 103.259 93.925 103.58 93.9212 103.955ZM104.85 109V97.3636H112.691V99.392H107.311V102.165H112.288V104.193H107.311V106.972H112.714V109H104.85ZM120.784 100.71C120.738 100.252 120.543 99.8958 120.199 99.642C119.854 99.3883 119.386 99.2614 118.795 99.2614C118.394 99.2614 118.055 99.3182 117.778 99.4318C117.502 99.5417 117.29 99.6951 117.142 99.892C116.998 100.089 116.926 100.312 116.926 100.562C116.918 100.771 116.962 100.953 117.057 101.108C117.155 101.263 117.29 101.398 117.46 101.511C117.63 101.621 117.827 101.718 118.051 101.801C118.274 101.881 118.513 101.949 118.767 102.006L119.812 102.256C120.32 102.369 120.786 102.521 121.21 102.71C121.634 102.9 122.002 103.133 122.312 103.409C122.623 103.686 122.863 104.011 123.034 104.386C123.208 104.761 123.297 105.191 123.301 105.676C123.297 106.388 123.115 107.006 122.755 107.528C122.399 108.047 121.884 108.451 121.21 108.739C120.54 109.023 119.731 109.165 118.784 109.165C117.844 109.165 117.026 109.021 116.329 108.733C115.636 108.445 115.094 108.019 114.704 107.455C114.318 106.886 114.115 106.184 114.096 105.347H116.477C116.504 105.737 116.615 106.062 116.812 106.324C117.013 106.581 117.28 106.777 117.613 106.909C117.951 107.038 118.331 107.102 118.755 107.102C119.172 107.102 119.534 107.042 119.841 106.92C120.151 106.799 120.392 106.631 120.562 106.415C120.733 106.199 120.818 105.951 120.818 105.67C120.818 105.409 120.74 105.189 120.585 105.011C120.433 104.833 120.21 104.682 119.915 104.557C119.623 104.432 119.265 104.318 118.841 104.216L117.574 103.898C116.593 103.659 115.818 103.286 115.25 102.778C114.682 102.271 114.399 101.587 114.403 100.727C114.399 100.023 114.587 99.4072 114.966 98.8807C115.348 98.3542 115.873 97.9432 116.54 97.6477C117.206 97.3523 117.964 97.2045 118.812 97.2045C119.676 97.2045 120.43 97.3523 121.074 97.6477C121.721 97.9432 122.225 98.3542 122.585 98.8807C122.945 99.4072 123.13 100.017 123.142 100.71H120.784ZM132.496 101.125C132.416 100.848 132.304 100.604 132.16 100.392C132.016 100.176 131.84 99.9943 131.632 99.8466C131.427 99.6951 131.193 99.5795 130.927 99.5C130.666 99.4205 130.376 99.3807 130.058 99.3807C129.463 99.3807 128.941 99.5284 128.49 99.8239C128.043 100.119 127.695 100.549 127.445 101.114C127.195 101.674 127.07 102.36 127.07 103.17C127.07 103.981 127.193 104.67 127.439 105.239C127.685 105.807 128.034 106.241 128.484 106.54C128.935 106.835 129.467 106.983 130.081 106.983C130.638 106.983 131.113 106.884 131.507 106.688C131.905 106.487 132.208 106.205 132.416 105.841C132.628 105.477 132.734 105.047 132.734 104.551L133.234 104.625H130.234V102.773H135.104V104.239C135.104 105.261 134.888 106.14 134.456 106.875C134.024 107.606 133.429 108.17 132.672 108.568C131.914 108.962 131.047 109.159 130.07 109.159C128.979 109.159 128.02 108.919 127.195 108.438C126.369 107.953 125.725 107.265 125.263 106.375C124.804 105.481 124.575 104.42 124.575 103.193C124.575 102.25 124.712 101.409 124.984 100.67C125.261 99.928 125.647 99.2992 126.143 98.7841C126.64 98.2689 127.217 97.8769 127.876 97.608C128.535 97.339 129.249 97.2045 130.018 97.2045C130.677 97.2045 131.291 97.3011 131.859 97.4943C132.427 97.6837 132.931 97.9527 133.371 98.3011C133.814 98.6496 134.176 99.0644 134.456 99.5455C134.736 100.023 134.916 100.549 134.996 101.125H132.496Z" fill="white"/>
<rect x="249.688" y="55.8115" width="251.539" height="96.4525" rx="6" fill="#E6E6E6"/>
<path d="M315.288 109.812V98.1752H323.129V100.204H317.749V102.976H322.726V105.005H317.749V107.783H323.152V109.812H315.288ZM328.08 109.954C327.417 109.954 326.816 109.783 326.279 109.442C325.745 109.098 325.32 108.592 325.006 107.925C324.695 107.255 324.54 106.433 324.54 105.459C324.54 104.459 324.701 103.628 325.023 102.965C325.345 102.298 325.773 101.8 326.307 101.471C326.845 101.137 327.434 100.971 328.074 100.971C328.563 100.971 328.97 101.054 329.296 101.221C329.625 101.383 329.89 101.588 330.091 101.834C330.296 102.077 330.451 102.315 330.557 102.55H330.631V98.1752H333.046V109.812H330.659V108.414H330.557C330.443 108.656 330.282 108.897 330.074 109.135C329.87 109.37 329.602 109.565 329.273 109.721C328.947 109.876 328.549 109.954 328.08 109.954ZM328.847 108.027C329.237 108.027 329.566 107.921 329.835 107.709C330.108 107.493 330.316 107.192 330.46 106.806C330.608 106.419 330.682 105.967 330.682 105.448C330.682 104.929 330.61 104.478 330.466 104.096C330.322 103.713 330.114 103.418 329.841 103.209C329.568 103.001 329.237 102.897 328.847 102.897C328.449 102.897 328.114 103.005 327.841 103.221C327.568 103.437 327.362 103.736 327.222 104.118C327.082 104.501 327.012 104.944 327.012 105.448C327.012 105.955 327.082 106.404 327.222 106.794C327.366 107.181 327.572 107.484 327.841 107.704C328.114 107.919 328.449 108.027 328.847 108.027ZM334.86 109.812V101.084H337.28V109.812H334.86ZM336.076 99.9593C335.716 99.9593 335.407 99.8399 335.149 99.6013C334.896 99.3589 334.769 99.0691 334.769 98.732C334.769 98.3986 334.896 98.1127 335.149 97.874C335.407 97.6316 335.716 97.5104 336.076 97.5104C336.435 97.5104 336.742 97.6316 336.996 97.874C337.254 98.1127 337.382 98.3986 337.382 98.732C337.382 99.0691 337.254 99.3589 336.996 99.6013C336.742 99.8399 336.435 99.9593 336.076 99.9593ZM343.685 101.084V102.902H338.429V101.084H343.685ZM339.623 98.9933H342.043V107.13C342.043 107.353 342.077 107.527 342.145 107.652C342.214 107.774 342.308 107.859 342.429 107.908C342.554 107.957 342.698 107.982 342.861 107.982C342.975 107.982 343.089 107.973 343.202 107.954C343.316 107.931 343.403 107.914 343.464 107.902L343.844 109.704C343.723 109.741 343.553 109.785 343.333 109.834C343.113 109.887 342.846 109.919 342.532 109.931C341.948 109.954 341.437 109.876 340.998 109.698C340.562 109.52 340.223 109.243 339.981 108.868C339.738 108.493 339.619 108.02 339.623 107.448V98.9933ZM348.613 109.812V101.084H351.033V109.812H348.613ZM349.829 99.9593C349.469 99.9593 349.16 99.8399 348.903 99.6013C348.649 99.3589 348.522 99.0691 348.522 98.732C348.522 98.3986 348.649 98.1127 348.903 97.874C349.16 97.6316 349.469 97.5104 349.829 97.5104C350.189 97.5104 350.496 97.6316 350.749 97.874C351.007 98.1127 351.136 98.3986 351.136 98.732C351.136 99.0691 351.007 99.3589 350.749 99.6013C350.496 99.8399 350.189 99.9593 349.829 99.9593ZM355.217 104.766V109.812H352.796V101.084H355.103V102.624H355.205C355.399 102.116 355.722 101.715 356.177 101.419C356.632 101.12 357.183 100.971 357.83 100.971C358.436 100.971 358.965 101.103 359.416 101.368C359.866 101.633 360.217 102.012 360.467 102.505C360.717 102.993 360.842 103.577 360.842 104.255V109.812H358.421V104.687C358.425 104.152 358.289 103.736 358.012 103.437C357.736 103.133 357.355 102.982 356.87 102.982C356.544 102.982 356.257 103.052 356.007 103.192C355.76 103.332 355.567 103.537 355.427 103.806C355.291 104.071 355.221 104.391 355.217 104.766ZM367.267 101.084V102.902H361.88V101.084H367.267ZM363.113 109.812V100.454C363.113 99.821 363.236 99.2964 363.483 98.8797C363.733 98.463 364.073 98.1505 364.505 97.9422C364.937 97.7339 365.428 97.6297 365.977 97.6297C366.348 97.6297 366.687 97.6581 366.994 97.7149C367.305 97.7718 367.536 97.8229 367.687 97.8683L367.255 99.6865C367.161 99.6562 367.043 99.6278 366.903 99.6013C366.767 99.5748 366.626 99.5615 366.483 99.5615C366.126 99.5615 365.878 99.6449 365.738 99.8115C365.598 99.9744 365.528 100.204 365.528 100.499V109.812H363.113ZM372.2 109.982C371.317 109.982 370.554 109.794 369.91 109.419C369.27 109.041 368.776 108.514 368.427 107.84C368.079 107.162 367.905 106.376 367.905 105.482C367.905 104.58 368.079 103.793 368.427 103.118C368.776 102.44 369.27 101.914 369.91 101.539C370.554 101.16 371.317 100.971 372.2 100.971C373.083 100.971 373.844 101.16 374.484 101.539C375.128 101.914 375.624 102.44 375.973 103.118C376.321 103.793 376.495 104.58 376.495 105.482C376.495 106.376 376.321 107.162 375.973 107.84C375.624 108.514 375.128 109.041 374.484 109.419C373.844 109.794 373.083 109.982 372.2 109.982ZM372.211 108.107C372.613 108.107 372.948 107.993 373.217 107.766C373.486 107.535 373.689 107.221 373.825 106.823C373.965 106.425 374.035 105.973 374.035 105.465C374.035 104.957 373.965 104.505 373.825 104.107C373.689 103.709 373.486 103.395 373.217 103.164C372.948 102.933 372.613 102.817 372.211 102.817C371.806 102.817 371.465 102.933 371.189 103.164C370.916 103.395 370.709 103.709 370.569 104.107C370.433 104.505 370.365 104.957 370.365 105.465C370.365 105.973 370.433 106.425 370.569 106.823C370.709 107.221 370.916 107.535 371.189 107.766C371.465 107.993 371.806 108.107 372.211 108.107ZM377.893 109.812V101.084H380.24V102.607H380.331C380.49 102.065 380.757 101.656 381.132 101.38C381.507 101.099 381.939 100.959 382.427 100.959C382.549 100.959 382.679 100.967 382.819 100.982C382.96 100.997 383.083 101.018 383.189 101.044V103.192C383.075 103.158 382.918 103.128 382.717 103.101C382.516 103.075 382.333 103.062 382.166 103.062C381.81 103.062 381.492 103.139 381.212 103.294C380.935 103.446 380.715 103.658 380.552 103.931C380.393 104.204 380.314 104.518 380.314 104.874V109.812H377.893ZM384.264 109.812V101.084H386.571V102.624H386.673C386.855 102.113 387.158 101.709 387.582 101.414C388.007 101.118 388.514 100.971 389.105 100.971C389.704 100.971 390.213 101.12 390.634 101.419C391.054 101.715 391.334 102.116 391.474 102.624H391.565C391.743 102.124 392.065 101.724 392.531 101.425C393.001 101.122 393.556 100.971 394.196 100.971C395.01 100.971 395.671 101.23 396.179 101.749C396.69 102.264 396.946 102.995 396.946 103.942V109.812H394.531V104.419C394.531 103.935 394.402 103.571 394.145 103.329C393.887 103.086 393.565 102.965 393.179 102.965C392.74 102.965 392.397 103.105 392.151 103.385C391.904 103.662 391.781 104.027 391.781 104.482V109.812H389.435V104.368C389.435 103.94 389.312 103.599 389.065 103.346C388.823 103.092 388.503 102.965 388.105 102.965C387.836 102.965 387.594 103.033 387.378 103.169C387.166 103.302 386.997 103.49 386.872 103.732C386.747 103.971 386.685 104.251 386.685 104.573V109.812H384.264ZM401.171 109.976C400.614 109.976 400.118 109.88 399.682 109.687C399.246 109.49 398.902 109.2 398.648 108.817C398.398 108.431 398.273 107.95 398.273 107.374C398.273 106.889 398.362 106.482 398.54 106.152C398.718 105.823 398.96 105.558 399.267 105.357C399.574 105.156 399.922 105.005 400.313 104.902C400.707 104.8 401.119 104.728 401.551 104.687C402.059 104.633 402.468 104.584 402.779 104.539C403.089 104.49 403.315 104.418 403.455 104.323C403.595 104.228 403.665 104.088 403.665 103.902V103.868C403.665 103.508 403.551 103.23 403.324 103.033C403.101 102.836 402.782 102.738 402.369 102.738C401.934 102.738 401.587 102.834 401.33 103.027C401.072 103.217 400.902 103.455 400.818 103.743L398.58 103.562C398.693 103.031 398.917 102.573 399.25 102.187C399.583 101.796 400.013 101.497 400.54 101.289C401.07 101.077 401.684 100.971 402.381 100.971C402.866 100.971 403.33 101.027 403.773 101.141C404.22 101.255 404.616 101.431 404.96 101.669C405.309 101.908 405.583 102.215 405.784 102.59C405.985 102.961 406.085 103.406 406.085 103.925V109.812H403.79V108.601H403.722C403.582 108.874 403.394 109.115 403.159 109.323C402.924 109.527 402.642 109.688 402.313 109.806C401.983 109.919 401.602 109.976 401.171 109.976ZM401.864 108.306C402.22 108.306 402.534 108.236 402.807 108.096C403.08 107.952 403.294 107.758 403.449 107.516C403.604 107.274 403.682 106.999 403.682 106.692V105.766C403.606 105.815 403.502 105.861 403.369 105.902C403.241 105.94 403.095 105.976 402.932 106.01C402.769 106.041 402.606 106.069 402.443 106.096C402.28 106.118 402.133 106.139 402 106.158C401.716 106.2 401.468 106.266 401.256 106.357C401.044 106.448 400.879 106.571 400.762 106.726C400.644 106.878 400.585 107.067 400.585 107.294C400.585 107.624 400.705 107.876 400.943 108.05C401.186 108.221 401.493 108.306 401.864 108.306ZM412.429 101.084V102.902H407.174V101.084H412.429ZM408.367 98.9933H410.787V107.13C410.787 107.353 410.821 107.527 410.889 107.652C410.958 107.774 411.052 107.859 411.174 107.908C411.299 107.957 411.443 107.982 411.605 107.982C411.719 107.982 411.833 107.973 411.946 107.954C412.06 107.931 412.147 107.914 412.208 107.902L412.588 109.704C412.467 109.741 412.297 109.785 412.077 109.834C411.857 109.887 411.59 109.919 411.276 109.931C410.693 109.954 410.181 109.876 409.742 109.698C409.306 109.52 408.967 109.243 408.725 108.868C408.482 108.493 408.363 108.02 408.367 107.448V98.9933ZM413.83 109.812V101.084H416.25V109.812H413.83ZM415.046 99.9593C414.686 99.9593 414.377 99.8399 414.12 99.6013C413.866 99.3589 413.739 99.0691 413.739 98.732C413.739 98.3986 413.866 98.1127 414.12 97.874C414.377 97.6316 414.686 97.5104 415.046 97.5104C415.406 97.5104 415.713 97.6316 415.966 97.874C416.224 98.1127 416.353 98.3986 416.353 98.732C416.353 99.0691 416.224 99.3589 415.966 99.6013C415.713 99.8399 415.406 99.9593 415.046 99.9593ZM421.957 109.982C421.074 109.982 420.311 109.794 419.667 109.419C419.027 109.041 418.532 108.514 418.184 107.84C417.835 107.162 417.661 106.376 417.661 105.482C417.661 104.58 417.835 103.793 418.184 103.118C418.532 102.44 419.027 101.914 419.667 101.539C420.311 101.16 421.074 100.971 421.957 100.971C422.839 100.971 423.6 101.16 424.241 101.539C424.885 101.914 425.381 102.44 425.729 103.118C426.078 103.793 426.252 104.58 426.252 105.482C426.252 106.376 426.078 107.162 425.729 107.84C425.381 108.514 424.885 109.041 424.241 109.419C423.6 109.794 422.839 109.982 421.957 109.982ZM421.968 108.107C422.369 108.107 422.705 107.993 422.974 107.766C423.243 107.535 423.445 107.221 423.582 106.823C423.722 106.425 423.792 105.973 423.792 105.465C423.792 104.957 423.722 104.505 423.582 104.107C423.445 103.709 423.243 103.395 422.974 103.164C422.705 102.933 422.369 102.817 421.968 102.817C421.563 102.817 421.222 102.933 420.945 103.164C420.672 103.395 420.466 103.709 420.326 104.107C420.189 104.505 420.121 104.957 420.121 105.465C420.121 105.973 420.189 106.425 420.326 106.823C420.466 107.221 420.672 107.535 420.945 107.766C421.222 107.993 421.563 108.107 421.968 108.107ZM430.07 104.766V109.812H427.65V101.084H429.957V102.624H430.059C430.252 102.116 430.576 101.715 431.031 101.419C431.485 101.12 432.036 100.971 432.684 100.971C433.29 100.971 433.818 101.103 434.269 101.368C434.72 101.633 435.07 102.012 435.32 102.505C435.57 102.993 435.695 103.577 435.695 104.255V109.812H433.275V104.687C433.279 104.152 433.142 103.736 432.866 103.437C432.589 103.133 432.209 102.982 431.724 102.982C431.398 102.982 431.11 103.052 430.86 103.192C430.614 103.332 430.421 103.537 430.281 103.806C430.144 104.071 430.074 104.391 430.07 104.766Z" fill="black" fill-opacity="0.8"/>
<path d="M198.805 102.538C197.976 102.538 197.305 103.21 197.305 104.038C197.305 104.867 197.976 105.538 198.805 105.538V102.538ZM246.753 105.099C247.339 104.513 247.339 103.563 246.753 102.977L237.207 93.4315C236.621 92.8457 235.671 92.8457 235.086 93.4315C234.5 94.0173 234.5 94.967 235.086 95.5528L243.571 104.038L235.086 112.523C234.5 113.109 234.5 114.059 235.086 114.645C235.671 115.23 236.621 115.23 237.207 114.645L246.753 105.099ZM198.805 105.538H245.692V102.538H198.805V105.538Z" fill="#B3B3B3"/>
<path d="M677.181 1.37266C679.398 -0.457555 682.602 -0.457553 684.819 1.37266L804.819 99.3727C807.727 101.772 807.727 106.228 804.819 108.627L684.819 206.627C682.602 208.458 679.398 208.458 677.181 206.627L557.181 108.627C554.273 106.228 554.273 101.772 557.181 99.3727L677.181 1.37266Z" fill="#9747FF"/>
<path d="M652.012 74H647.887V62.3636H652.046C653.217 62.3636 654.224 62.5966 655.069 63.0625C655.914 63.5246 656.563 64.1894 657.018 65.0568C657.476 65.9242 657.705 66.9621 657.705 68.1705C657.705 69.3826 657.476 70.4242 657.018 71.2955C656.563 72.1667 655.91 72.8352 655.058 73.3011C654.209 73.767 653.194 74 652.012 74ZM650.347 71.892H651.91C652.637 71.892 653.249 71.7633 653.745 71.5057C654.245 71.2443 654.62 70.8409 654.87 70.2955C655.124 69.7462 655.251 69.0379 655.251 68.1705C655.251 67.3106 655.124 66.608 654.87 66.0625C654.62 65.517 654.247 65.1155 653.751 64.858C653.255 64.6004 652.643 64.4716 651.916 64.4716H650.347V71.892ZM663.25 74.1705C662.367 74.1705 661.604 73.983 660.96 73.608C660.32 73.2292 659.825 72.7027 659.477 72.0284C659.128 71.3504 658.954 70.5644 658.954 69.6705C658.954 68.7689 659.128 67.9811 659.477 67.3068C659.825 66.6288 660.32 66.1023 660.96 65.7273C661.604 65.3485 662.367 65.1591 663.25 65.1591C664.132 65.1591 664.894 65.3485 665.534 65.7273C666.178 66.1023 666.674 66.6288 667.022 67.3068C667.371 67.9811 667.545 68.7689 667.545 69.6705C667.545 70.5644 667.371 71.3504 667.022 72.0284C666.674 72.7027 666.178 73.2292 665.534 73.608C664.894 73.983 664.132 74.1705 663.25 74.1705ZM663.261 72.2955C663.662 72.2955 663.998 72.1818 664.267 71.9545C664.536 71.7235 664.738 71.4091 664.875 71.0114C665.015 70.6136 665.085 70.161 665.085 69.6534C665.085 69.1458 665.015 68.6932 664.875 68.2955C664.738 67.8977 664.536 67.5833 664.267 67.3523C663.998 67.1212 663.662 67.0057 663.261 67.0057C662.856 67.0057 662.515 67.1212 662.238 67.3523C661.966 67.5833 661.759 67.8977 661.619 68.2955C661.483 68.6932 661.414 69.1458 661.414 69.6534C661.414 70.161 661.483 70.6136 661.619 71.0114C661.759 71.4091 661.966 71.7235 662.238 71.9545C662.515 72.1818 662.856 72.2955 663.261 72.2955ZM672.92 74.1705C672.022 74.1705 671.25 73.9886 670.602 73.625C669.958 73.2576 669.462 72.7386 669.113 72.0682C668.765 71.3939 668.591 70.5966 668.591 69.6761C668.591 68.7784 668.765 67.9905 669.113 67.3125C669.462 66.6345 669.952 66.1061 670.585 65.7273C671.221 65.3485 671.968 65.1591 672.824 65.1591C673.399 65.1591 673.935 65.2519 674.432 65.4375C674.932 65.6193 675.367 65.8939 675.738 66.2614C676.113 66.6288 676.405 67.0909 676.613 67.6477C676.822 68.2008 676.926 68.8485 676.926 69.5909V70.2557H669.557V68.7557H674.647C674.647 68.4072 674.572 68.0985 674.42 67.8295C674.269 67.5606 674.058 67.3504 673.789 67.1989C673.524 67.0436 673.216 66.9659 672.863 66.9659C672.496 66.9659 672.17 67.0511 671.886 67.2216C671.606 67.3883 671.386 67.6136 671.227 67.8977C671.068 68.178 670.986 68.4905 670.983 68.8352V70.2614C670.983 70.6932 671.062 71.0663 671.221 71.3807C671.384 71.6951 671.613 71.9375 671.909 72.108C672.204 72.2784 672.555 72.3636 672.96 72.3636C673.229 72.3636 673.475 72.3258 673.699 72.25C673.922 72.1742 674.113 72.0606 674.272 71.9091C674.432 71.7576 674.553 71.572 674.636 71.3523L676.875 71.5C676.761 72.0379 676.528 72.5076 676.176 72.9091C675.827 73.3068 675.377 73.6174 674.824 73.8409C674.274 74.0606 673.64 74.1705 672.92 74.1705ZM685.591 67.7614L683.375 67.8977C683.337 67.7083 683.256 67.5379 683.131 67.3864C683.006 67.2311 682.841 67.108 682.636 67.017C682.435 66.9223 682.195 66.875 681.915 66.875C681.54 66.875 681.223 66.9545 680.966 67.1136C680.708 67.2689 680.579 67.4773 680.579 67.7386C680.579 67.947 680.663 68.1231 680.829 68.267C680.996 68.411 681.282 68.5265 681.687 68.6136L683.267 68.9318C684.115 69.1061 684.748 69.3864 685.165 69.7727C685.581 70.1591 685.79 70.6667 685.79 71.2955C685.79 71.8674 685.621 72.3693 685.284 72.8011C684.951 73.233 684.492 73.5701 683.909 73.8125C683.329 74.0511 682.661 74.1705 681.903 74.1705C680.748 74.1705 679.828 73.9299 679.142 73.4489C678.46 72.964 678.06 72.3049 677.943 71.4716L680.324 71.3466C680.396 71.6989 680.57 71.9678 680.846 72.1534C681.123 72.3352 681.477 72.4261 681.909 72.4261C682.333 72.4261 682.674 72.3447 682.932 72.1818C683.193 72.0152 683.326 71.8011 683.329 71.5398C683.326 71.3201 683.233 71.1402 683.051 71C682.869 70.8561 682.589 70.7462 682.21 70.6705L680.699 70.3693C679.846 70.1989 679.212 69.9034 678.795 69.483C678.382 69.0625 678.176 68.5265 678.176 67.875C678.176 67.3144 678.328 66.8314 678.631 66.4261C678.937 66.0208 679.367 65.7083 679.92 65.4886C680.477 65.2689 681.129 65.1591 681.875 65.1591C682.977 65.1591 683.845 65.392 684.477 65.858C685.113 66.3239 685.485 66.9583 685.591 67.7614ZM695.307 65.2727V67.0909H690.051V65.2727H695.307ZM691.244 63.1818H693.665V71.3182C693.665 71.5417 693.699 71.7159 693.767 71.8409C693.835 71.9621 693.93 72.0473 694.051 72.0966C694.176 72.1458 694.32 72.1705 694.483 72.1705C694.597 72.1705 694.71 72.161 694.824 72.142C694.938 72.1193 695.025 72.1023 695.085 72.0909L695.466 73.892C695.345 73.9299 695.174 73.9735 694.955 74.0227C694.735 74.0758 694.468 74.108 694.154 74.1193C693.57 74.142 693.059 74.0644 692.619 73.8864C692.184 73.7083 691.845 73.4318 691.602 73.0568C691.36 72.6818 691.241 72.2083 691.244 71.6364V63.1818ZM699.316 68.9545V74H696.895V62.3636H699.247V66.8125H699.35C699.547 66.2973 699.865 65.8939 700.304 65.6023C700.744 65.3068 701.295 65.1591 701.958 65.1591C702.564 65.1591 703.092 65.2917 703.543 65.5568C703.997 65.8182 704.35 66.1951 704.6 66.6875C704.853 67.1761 704.978 67.7614 704.975 68.4432V74H702.554V68.875C702.558 68.3371 702.422 67.9186 702.145 67.6193C701.872 67.3201 701.49 67.1705 700.997 67.1705C700.668 67.1705 700.376 67.2405 700.122 67.3807C699.872 67.5208 699.675 67.7254 699.532 67.9943C699.391 68.2595 699.319 68.5795 699.316 68.9545ZM710.681 74.1705C709.783 74.1705 709.01 73.9886 708.363 73.625C707.719 73.2576 707.222 72.7386 706.874 72.0682C706.526 71.3939 706.351 70.5966 706.351 69.6761C706.351 68.7784 706.526 67.9905 706.874 67.3125C707.222 66.6345 707.713 66.1061 708.346 65.7273C708.982 65.3485 709.728 65.1591 710.584 65.1591C711.16 65.1591 711.696 65.2519 712.192 65.4375C712.692 65.6193 713.128 65.8939 713.499 66.2614C713.874 66.6288 714.166 67.0909 714.374 67.6477C714.582 68.2008 714.686 68.8485 714.686 69.5909V70.2557H707.317V68.7557H712.408C712.408 68.4072 712.332 68.0985 712.181 67.8295C712.029 67.5606 711.819 67.3504 711.55 67.1989C711.285 67.0436 710.976 66.9659 710.624 66.9659C710.257 66.9659 709.931 67.0511 709.647 67.2216C709.366 67.3883 709.147 67.6136 708.988 67.8977C708.829 68.178 708.747 68.4905 708.743 68.8352V70.2614C708.743 70.6932 708.823 71.0663 708.982 71.3807C709.145 71.6951 709.374 71.9375 709.669 72.108C709.965 72.2784 710.315 72.3636 710.721 72.3636C710.99 72.3636 711.236 72.3258 711.459 72.25C711.683 72.1742 711.874 72.0606 712.033 71.9091C712.192 71.7576 712.313 71.572 712.397 71.3523L714.635 71.5C714.522 72.0379 714.289 72.5076 713.936 72.9091C713.588 73.3068 713.137 73.6174 712.584 73.8409C712.035 74.0606 711.401 74.1705 710.681 74.1705ZM652.73 91.7614L650.514 91.8977C650.476 91.7083 650.395 91.5379 650.27 91.3864C650.145 91.2311 649.98 91.108 649.776 91.017C649.575 90.9223 649.334 90.875 649.054 90.875C648.679 90.875 648.363 90.9545 648.105 91.1136C647.848 91.2689 647.719 91.4773 647.719 91.7386C647.719 91.947 647.802 92.1231 647.969 92.267C648.136 92.411 648.421 92.5265 648.827 92.6136L650.406 92.9318C651.255 93.1061 651.887 93.3864 652.304 93.7727C652.721 94.1591 652.929 94.6667 652.929 95.2955C652.929 95.8674 652.761 96.3693 652.423 96.8011C652.09 97.233 651.632 97.5701 651.048 97.8125C650.469 98.0511 649.8 98.1705 649.043 98.1705C647.887 98.1705 646.967 97.9299 646.281 97.4489C645.6 96.964 645.2 96.3049 645.082 95.4716L647.463 95.3466C647.535 95.6989 647.709 95.9678 647.986 96.1534C648.262 96.3352 648.617 96.4261 649.048 96.4261C649.473 96.4261 649.814 96.3447 650.071 96.1818C650.332 96.0152 650.465 95.8011 650.469 95.5398C650.465 95.3201 650.372 95.1402 650.19 95C650.009 94.8561 649.728 94.7462 649.35 94.6705L647.838 94.3693C646.986 94.1989 646.351 93.9034 645.935 93.483C645.522 93.0625 645.315 92.5265 645.315 91.875C645.315 91.3144 645.467 90.8314 645.77 90.4261C646.077 90.0208 646.507 89.7083 647.06 89.4886C647.617 89.2689 648.268 89.1591 649.014 89.1591C650.117 89.1591 650.984 89.392 651.617 89.858C652.253 90.3239 652.624 90.9583 652.73 91.7614ZM654.277 98V89.2727H656.698V98H654.277ZM655.493 88.1477C655.133 88.1477 654.825 88.0284 654.567 87.7898C654.313 87.5473 654.186 87.2576 654.186 86.9205C654.186 86.5871 654.313 86.3011 654.567 86.0625C654.825 85.8201 655.133 85.6989 655.493 85.6989C655.853 85.6989 656.16 85.8201 656.414 86.0625C656.671 86.3011 656.8 86.5871 656.8 86.9205C656.8 87.2576 656.671 87.5473 656.414 87.7898C656.16 88.0284 655.853 88.1477 655.493 88.1477ZM662.392 101.455C661.608 101.455 660.936 101.347 660.375 101.131C659.819 100.919 659.375 100.629 659.046 100.261C658.716 99.8939 658.502 99.4811 658.404 99.0227L660.642 98.7216C660.711 98.8958 660.819 99.0587 660.966 99.2102C661.114 99.3617 661.309 99.483 661.552 99.5739C661.798 99.6686 662.097 99.7159 662.449 99.7159C662.976 99.7159 663.409 99.5871 663.75 99.3295C664.095 99.0758 664.267 98.6496 664.267 98.0511V96.4545H664.165C664.059 96.697 663.9 96.9261 663.688 97.142C663.476 97.358 663.203 97.5341 662.87 97.6705C662.536 97.8068 662.139 97.875 661.677 97.875C661.021 97.875 660.425 97.7235 659.887 97.4205C659.353 97.1136 658.927 96.6458 658.608 96.017C658.294 95.3845 658.137 94.5852 658.137 93.6193C658.137 92.6307 658.298 91.8049 658.62 91.142C658.942 90.4792 659.37 89.983 659.904 89.6534C660.442 89.3239 661.031 89.1591 661.671 89.1591C662.159 89.1591 662.569 89.2424 662.898 89.4091C663.228 89.572 663.493 89.7765 663.694 90.0227C663.898 90.2652 664.055 90.5038 664.165 90.7386H664.256V89.2727H666.659V98.0852C666.659 98.8277 666.478 99.4489 666.114 99.9489C665.75 100.449 665.247 100.824 664.603 101.074C663.962 101.328 663.226 101.455 662.392 101.455ZM662.444 96.0568C662.834 96.0568 663.163 95.9602 663.432 95.767C663.705 95.5701 663.913 95.2898 664.057 94.9261C664.205 94.5587 664.279 94.1193 664.279 93.608C664.279 93.0966 664.207 92.6534 664.063 92.2784C663.919 91.8996 663.711 91.6061 663.438 91.3977C663.165 91.1894 662.834 91.0852 662.444 91.0852C662.046 91.0852 661.711 91.1932 661.438 91.4091C661.165 91.6212 660.959 91.9167 660.819 92.2955C660.678 92.6742 660.608 93.1117 660.608 93.608C660.608 94.1117 660.678 94.5473 660.819 94.9148C660.962 95.2784 661.169 95.5606 661.438 95.7614C661.711 95.9583 662.046 96.0568 662.444 96.0568ZM670.83 92.9545V98H668.41V89.2727H670.716V90.8125H670.819C671.012 90.3049 671.336 89.9034 671.79 89.608C672.245 89.3087 672.796 89.1591 673.444 89.1591C674.05 89.1591 674.578 89.2917 675.029 89.5568C675.48 89.822 675.83 90.2008 676.08 90.6932C676.33 91.1818 676.455 91.7652 676.455 92.4432V98H674.035V92.875C674.038 92.3409 673.902 91.9242 673.626 91.625C673.349 91.322 672.968 91.1705 672.483 91.1705C672.158 91.1705 671.87 91.2405 671.62 91.3807C671.374 91.5208 671.18 91.7254 671.04 91.9943C670.904 92.2595 670.834 92.5795 670.83 92.9545ZM680.675 98.1648C680.119 98.1648 679.622 98.0682 679.187 97.875C678.751 97.678 678.406 97.3883 678.153 97.0057C677.903 96.6193 677.778 96.1383 677.778 95.5625C677.778 95.0777 677.867 94.6705 678.045 94.3409C678.223 94.0114 678.465 93.7462 678.772 93.5455C679.079 93.3447 679.427 93.1932 679.817 93.0909C680.211 92.9886 680.624 92.9167 681.056 92.875C681.564 92.822 681.973 92.7727 682.283 92.7273C682.594 92.678 682.819 92.6061 682.959 92.5114C683.1 92.4167 683.17 92.2765 683.17 92.0909V92.0568C683.17 91.697 683.056 91.4186 682.829 91.2216C682.605 91.0246 682.287 90.9261 681.874 90.9261C681.439 90.9261 681.092 91.0227 680.834 91.2159C680.577 91.4053 680.406 91.6439 680.323 91.9318L678.084 91.75C678.198 91.2197 678.422 90.7614 678.755 90.375C679.088 89.9848 679.518 89.6856 680.045 89.4773C680.575 89.2652 681.189 89.1591 681.886 89.1591C682.37 89.1591 682.834 89.2159 683.278 89.3295C683.725 89.4432 684.12 89.6193 684.465 89.858C684.814 90.0966 685.088 90.4034 685.289 90.7784C685.49 91.1496 685.59 91.5947 685.59 92.1136V98H683.295V96.7898H683.226C683.086 97.0625 682.899 97.303 682.664 97.5114C682.429 97.7159 682.147 97.8769 681.817 97.9943C681.488 98.108 681.107 98.1648 680.675 98.1648ZM681.369 96.4943C681.725 96.4943 682.039 96.4242 682.312 96.2841C682.584 96.1402 682.798 95.947 682.954 95.7045C683.109 95.4621 683.187 95.1875 683.187 94.8807V93.9545C683.111 94.0038 683.007 94.0492 682.874 94.0909C682.745 94.1288 682.6 94.1648 682.437 94.1989C682.274 94.2292 682.111 94.2576 681.948 94.2841C681.785 94.3068 681.637 94.3277 681.505 94.3466C681.221 94.3883 680.973 94.4545 680.761 94.5455C680.548 94.6364 680.384 94.7595 680.266 94.9148C680.149 95.0663 680.09 95.2557 680.09 95.483C680.09 95.8125 680.209 96.0644 680.448 96.2386C680.691 96.4091 680.997 96.4943 681.369 96.4943ZM691.934 89.2727V91.0909H686.678V89.2727H691.934ZM687.872 87.1818H690.292V95.3182C690.292 95.5417 690.326 95.7159 690.394 95.8409C690.462 95.9621 690.557 96.0473 690.678 96.0966C690.803 96.1458 690.947 96.1705 691.11 96.1705C691.224 96.1705 691.337 96.161 691.451 96.142C691.565 96.1193 691.652 96.1023 691.712 96.0909L692.093 97.892C691.972 97.9299 691.801 97.9735 691.582 98.0227C691.362 98.0758 691.095 98.108 690.781 98.1193C690.197 98.142 689.686 98.0644 689.247 97.8864C688.811 97.7083 688.472 97.4318 688.229 97.0568C687.987 96.6818 687.868 96.2083 687.872 95.6364V87.1818ZM698.931 94.2841V89.2727H701.352V98H699.028V96.4148H698.937C698.74 96.9261 698.412 97.3371 697.954 97.6477C697.499 97.9583 696.945 98.1136 696.289 98.1136C695.706 98.1136 695.193 97.9811 694.749 97.7159C694.306 97.4508 693.96 97.0739 693.71 96.5852C693.464 96.0966 693.339 95.5114 693.335 94.8295V89.2727H695.755V94.3977C695.759 94.9129 695.897 95.3201 696.17 95.6193C696.443 95.9186 696.808 96.0682 697.267 96.0682C697.558 96.0682 697.831 96.0019 698.085 95.8693C698.339 95.733 698.543 95.5322 698.698 95.267C698.857 95.0019 698.935 94.6742 698.931 94.2841ZM703.112 98V89.2727H705.458V90.7955H705.549C705.708 90.2538 705.975 89.8447 706.35 89.5682C706.725 89.2879 707.157 89.1477 707.646 89.1477C707.767 89.1477 707.898 89.1553 708.038 89.1705C708.178 89.1856 708.301 89.2064 708.407 89.233V91.3807C708.294 91.3466 708.136 91.3163 707.936 91.2898C707.735 91.2633 707.551 91.25 707.385 91.25C707.029 91.25 706.71 91.3277 706.43 91.483C706.154 91.6345 705.934 91.8466 705.771 92.1193C705.612 92.392 705.532 92.7064 705.532 93.0625V98H703.112ZM713.054 98.1705C712.156 98.1705 711.383 97.9886 710.736 97.625C710.092 97.2576 709.595 96.7386 709.247 96.0682C708.898 95.3939 708.724 94.5966 708.724 93.6761C708.724 92.7784 708.898 91.9905 709.247 91.3125C709.595 90.6345 710.086 90.1061 710.719 89.7273C711.355 89.3485 712.101 89.1591 712.957 89.1591C713.533 89.1591 714.069 89.2519 714.565 89.4375C715.065 89.6193 715.501 89.8939 715.872 90.2614C716.247 90.6288 716.539 91.0909 716.747 91.6477C716.955 92.2008 717.059 92.8485 717.059 93.5909V94.2557H709.69V92.7557H714.781C714.781 92.4072 714.705 92.0985 714.554 91.8295C714.402 91.5606 714.192 91.3504 713.923 91.1989C713.658 91.0436 713.349 90.9659 712.997 90.9659C712.63 90.9659 712.304 91.0511 712.02 91.2216C711.739 91.3883 711.52 91.6136 711.361 91.8977C711.201 92.178 711.12 92.4905 711.116 92.8352V94.2614C711.116 94.6932 711.196 95.0663 711.355 95.3807C711.518 95.6951 711.747 95.9375 712.042 96.108C712.338 96.2784 712.688 96.3636 713.094 96.3636C713.362 96.3636 713.609 96.3258 713.832 96.25C714.056 96.1742 714.247 96.0606 714.406 95.9091C714.565 95.7576 714.686 95.572 714.77 95.3523L717.008 95.5C716.895 96.0379 716.662 96.5076 716.309 96.9091C715.961 97.3068 715.51 97.6174 714.957 97.8409C714.408 98.0606 713.773 98.1705 713.054 98.1705ZM633.303 125.273V113.273H635.69V114.739H635.797C635.904 114.504 636.057 114.265 636.258 114.023C636.462 113.777 636.727 113.572 637.053 113.409C637.383 113.242 637.792 113.159 638.28 113.159C638.917 113.159 639.504 113.326 640.042 113.659C640.58 113.989 641.01 114.487 641.332 115.153C641.654 115.816 641.815 116.648 641.815 117.648C641.815 118.621 641.657 119.443 641.343 120.114C641.032 120.78 640.608 121.286 640.07 121.631C639.536 121.972 638.938 122.142 638.275 122.142C637.805 122.142 637.405 122.064 637.076 121.909C636.75 121.754 636.483 121.559 636.275 121.324C636.066 121.085 635.907 120.845 635.797 120.602H635.724V125.273H633.303ZM635.672 117.636C635.672 118.155 635.744 118.608 635.888 118.994C636.032 119.381 636.241 119.682 636.513 119.898C636.786 120.11 637.118 120.216 637.508 120.216C637.902 120.216 638.235 120.108 638.508 119.892C638.78 119.672 638.987 119.369 639.127 118.983C639.271 118.593 639.343 118.144 639.343 117.636C639.343 117.133 639.273 116.689 639.133 116.307C638.993 115.924 638.786 115.625 638.513 115.409C638.241 115.193 637.905 115.085 637.508 115.085C637.114 115.085 636.78 115.189 636.508 115.398C636.239 115.606 636.032 115.902 635.888 116.284C635.744 116.667 635.672 117.117 635.672 117.636ZM643.252 122V113.273H645.599V114.795H645.69C645.849 114.254 646.116 113.845 646.491 113.568C646.866 113.288 647.298 113.148 647.786 113.148C647.907 113.148 648.038 113.155 648.178 113.17C648.318 113.186 648.442 113.206 648.548 113.233V115.381C648.434 115.347 648.277 115.316 648.076 115.29C647.875 115.263 647.692 115.25 647.525 115.25C647.169 115.25 646.851 115.328 646.57 115.483C646.294 115.634 646.074 115.847 645.911 116.119C645.752 116.392 645.673 116.706 645.673 117.062V122H643.252ZM653.194 122.17C652.296 122.17 651.524 121.989 650.876 121.625C650.232 121.258 649.736 120.739 649.387 120.068C649.039 119.394 648.865 118.597 648.865 117.676C648.865 116.778 649.039 115.991 649.387 115.312C649.736 114.634 650.226 114.106 650.859 113.727C651.495 113.348 652.241 113.159 653.097 113.159C653.673 113.159 654.209 113.252 654.705 113.438C655.205 113.619 655.641 113.894 656.012 114.261C656.387 114.629 656.679 115.091 656.887 115.648C657.096 116.201 657.2 116.848 657.2 117.591V118.256H649.83V116.756H654.921C654.921 116.407 654.846 116.098 654.694 115.83C654.543 115.561 654.332 115.35 654.063 115.199C653.798 115.044 653.49 114.966 653.137 114.966C652.77 114.966 652.444 115.051 652.16 115.222C651.88 115.388 651.66 115.614 651.501 115.898C651.342 116.178 651.26 116.491 651.257 116.835V118.261C651.257 118.693 651.336 119.066 651.495 119.381C651.658 119.695 651.887 119.938 652.183 120.108C652.478 120.278 652.829 120.364 653.234 120.364C653.503 120.364 653.749 120.326 653.972 120.25C654.196 120.174 654.387 120.061 654.546 119.909C654.705 119.758 654.827 119.572 654.91 119.352L657.149 119.5C657.035 120.038 656.802 120.508 656.45 120.909C656.101 121.307 655.65 121.617 655.097 121.841C654.548 122.061 653.914 122.17 653.194 122.17ZM666.505 113.273L663.454 122H660.727L657.676 113.273H660.233L662.045 119.517H662.136L663.943 113.273H666.505ZM667.568 122V113.273H669.988V122H667.568ZM668.784 112.148C668.424 112.148 668.115 112.028 667.858 111.79C667.604 111.547 667.477 111.258 667.477 110.92C667.477 110.587 667.604 110.301 667.858 110.062C668.115 109.82 668.424 109.699 668.784 109.699C669.144 109.699 669.45 109.82 669.704 110.062C669.962 110.301 670.091 110.587 670.091 110.92C670.091 111.258 669.962 111.547 669.704 111.79C669.45 112.028 669.144 112.148 668.784 112.148ZM675.729 122.17C674.831 122.17 674.058 121.989 673.41 121.625C672.766 121.258 672.27 120.739 671.922 120.068C671.573 119.394 671.399 118.597 671.399 117.676C671.399 116.778 671.573 115.991 671.922 115.312C672.27 114.634 672.761 114.106 673.393 113.727C674.03 113.348 674.776 113.159 675.632 113.159C676.208 113.159 676.744 113.252 677.24 113.438C677.74 113.619 678.176 113.894 678.547 114.261C678.922 114.629 679.213 115.091 679.422 115.648C679.63 116.201 679.734 116.848 679.734 117.591V118.256H672.365V116.756H677.456C677.456 116.407 677.38 116.098 677.229 115.83C677.077 115.561 676.867 115.35 676.598 115.199C676.333 115.044 676.024 114.966 675.672 114.966C675.304 114.966 674.979 115.051 674.694 115.222C674.414 115.388 674.194 115.614 674.035 115.898C673.876 116.178 673.795 116.491 673.791 116.835V118.261C673.791 118.693 673.871 119.066 674.03 119.381C674.193 119.695 674.422 119.938 674.717 120.108C675.013 120.278 675.363 120.364 675.768 120.364C676.037 120.364 676.283 120.326 676.507 120.25C676.73 120.174 676.922 120.061 677.081 119.909C677.24 119.758 677.361 119.572 677.444 119.352L679.683 119.5C679.569 120.038 679.337 120.508 678.984 120.909C678.636 121.307 678.185 121.617 677.632 121.841C677.083 122.061 676.448 122.17 675.729 122.17ZM682.797 122L680.422 113.273H682.871L684.223 119.136H684.303L685.712 113.273H688.115L689.547 119.102H689.621L690.95 113.273H693.393L691.024 122H688.462L686.962 116.511H686.854L685.354 122H682.797ZM700.456 110.364V122H698.036V110.364H700.456ZM706.162 122.17C705.28 122.17 704.517 121.983 703.873 121.608C703.232 121.229 702.738 120.703 702.39 120.028C702.041 119.35 701.867 118.564 701.867 117.67C701.867 116.769 702.041 115.981 702.39 115.307C702.738 114.629 703.232 114.102 703.873 113.727C704.517 113.348 705.28 113.159 706.162 113.159C707.045 113.159 707.806 113.348 708.446 113.727C709.09 114.102 709.587 114.629 709.935 115.307C710.284 115.981 710.458 116.769 710.458 117.67C710.458 118.564 710.284 119.35 709.935 120.028C709.587 120.703 709.09 121.229 708.446 121.608C707.806 121.983 707.045 122.17 706.162 122.17ZM706.174 120.295C706.575 120.295 706.91 120.182 707.179 119.955C707.448 119.723 707.651 119.409 707.787 119.011C707.927 118.614 707.998 118.161 707.998 117.653C707.998 117.146 707.927 116.693 707.787 116.295C707.651 115.898 707.448 115.583 707.179 115.352C706.91 115.121 706.575 115.006 706.174 115.006C705.768 115.006 705.427 115.121 705.151 115.352C704.878 115.583 704.672 115.898 704.532 116.295C704.395 116.693 704.327 117.146 704.327 117.653C704.327 118.161 704.395 118.614 704.532 119.011C704.672 119.409 704.878 119.723 705.151 119.955C705.427 120.182 705.768 120.295 706.174 120.295ZM715.799 122.17C714.916 122.17 714.153 121.983 713.509 121.608C712.869 121.229 712.375 120.703 712.026 120.028C711.678 119.35 711.503 118.564 711.503 117.67C711.503 116.769 711.678 115.981 712.026 115.307C712.375 114.629 712.869 114.102 713.509 113.727C714.153 113.348 714.916 113.159 715.799 113.159C716.681 113.159 717.443 113.348 718.083 113.727C718.727 114.102 719.223 114.629 719.572 115.307C719.92 115.981 720.094 116.769 720.094 117.67C720.094 118.564 719.92 119.35 719.572 120.028C719.223 120.703 718.727 121.229 718.083 121.608C717.443 121.983 716.681 122.17 715.799 122.17ZM715.81 120.295C716.212 120.295 716.547 120.182 716.816 119.955C717.085 119.723 717.287 119.409 717.424 119.011C717.564 118.614 717.634 118.161 717.634 117.653C717.634 117.146 717.564 116.693 717.424 116.295C717.287 115.898 717.085 115.583 716.816 115.352C716.547 115.121 716.212 115.006 715.81 115.006C715.405 115.006 715.064 115.121 714.787 115.352C714.515 115.583 714.308 115.898 714.168 116.295C714.032 116.693 713.964 117.146 713.964 117.653C713.964 118.161 714.032 118.614 714.168 119.011C714.308 119.409 714.515 119.723 714.787 119.955C715.064 120.182 715.405 120.295 715.81 120.295ZM723.685 119.489L723.691 116.585H724.043L726.839 113.273H729.617L725.861 117.659H725.288L723.685 119.489ZM721.492 122V110.364H723.913V122H721.492ZM726.947 122L724.379 118.199L725.992 116.489L729.782 122H726.947ZM661.789 149.455C661.005 149.455 660.332 149.347 659.772 149.131C659.215 148.919 658.772 148.629 658.442 148.261C658.113 147.894 657.899 147.481 657.8 147.023L660.039 146.722C660.107 146.896 660.215 147.059 660.363 147.21C660.51 147.362 660.705 147.483 660.948 147.574C661.194 147.669 661.493 147.716 661.846 147.716C662.372 147.716 662.806 147.587 663.147 147.33C663.491 147.076 663.664 146.65 663.664 146.051V144.455H663.562C663.455 144.697 663.296 144.926 663.084 145.142C662.872 145.358 662.599 145.534 662.266 145.67C661.933 145.807 661.535 145.875 661.073 145.875C660.418 145.875 659.821 145.723 659.283 145.42C658.749 145.114 658.323 144.646 658.005 144.017C657.69 143.384 657.533 142.585 657.533 141.619C657.533 140.631 657.694 139.805 658.016 139.142C658.338 138.479 658.766 137.983 659.3 137.653C659.838 137.324 660.427 137.159 661.067 137.159C661.556 137.159 661.965 137.242 662.294 137.409C662.624 137.572 662.889 137.777 663.09 138.023C663.294 138.265 663.452 138.504 663.562 138.739H663.652V137.273H666.056V146.085C666.056 146.828 665.874 147.449 665.51 147.949C665.147 148.449 664.643 148.824 663.999 149.074C663.359 149.328 662.622 149.455 661.789 149.455ZM661.84 144.057C662.23 144.057 662.56 143.96 662.829 143.767C663.101 143.57 663.31 143.29 663.454 142.926C663.601 142.559 663.675 142.119 663.675 141.608C663.675 141.097 663.603 140.653 663.459 140.278C663.315 139.9 663.107 139.606 662.834 139.398C662.562 139.189 662.23 139.085 661.84 139.085C661.442 139.085 661.107 139.193 660.834 139.409C660.562 139.621 660.355 139.917 660.215 140.295C660.075 140.674 660.005 141.112 660.005 141.608C660.005 142.112 660.075 142.547 660.215 142.915C660.359 143.278 660.565 143.561 660.834 143.761C661.107 143.958 661.442 144.057 661.84 144.057ZM671.749 146.17C670.867 146.17 670.103 145.983 669.459 145.608C668.819 145.229 668.325 144.703 667.976 144.028C667.628 143.35 667.454 142.564 667.454 141.67C667.454 140.769 667.628 139.981 667.976 139.307C668.325 138.629 668.819 138.102 669.459 137.727C670.103 137.348 670.867 137.159 671.749 137.159C672.632 137.159 673.393 137.348 674.033 137.727C674.677 138.102 675.173 138.629 675.522 139.307C675.87 139.981 676.045 140.769 676.045 141.67C676.045 142.564 675.87 143.35 675.522 144.028C675.173 144.703 674.677 145.229 674.033 145.608C673.393 145.983 672.632 146.17 671.749 146.17ZM671.761 144.295C672.162 144.295 672.497 144.182 672.766 143.955C673.035 143.723 673.238 143.409 673.374 143.011C673.514 142.614 673.584 142.161 673.584 141.653C673.584 141.146 673.514 140.693 673.374 140.295C673.238 139.898 673.035 139.583 672.766 139.352C672.497 139.121 672.162 139.006 671.761 139.006C671.355 139.006 671.014 139.121 670.738 139.352C670.465 139.583 670.259 139.898 670.118 140.295C669.982 140.693 669.914 141.146 669.914 141.653C669.914 142.161 669.982 142.614 670.118 143.011C670.259 143.409 670.465 143.723 670.738 143.955C671.014 144.182 671.355 144.295 671.761 144.295ZM681.386 146.17C680.503 146.17 679.74 145.983 679.096 145.608C678.456 145.229 677.961 144.703 677.613 144.028C677.264 143.35 677.09 142.564 677.09 141.67C677.09 140.769 677.264 139.981 677.613 139.307C677.961 138.629 678.456 138.102 679.096 137.727C679.74 137.348 680.503 137.159 681.386 137.159C682.268 137.159 683.03 137.348 683.67 137.727C684.314 138.102 684.81 138.629 685.158 139.307C685.507 139.981 685.681 140.769 685.681 141.67C685.681 142.564 685.507 143.35 685.158 144.028C684.81 144.703 684.314 145.229 683.67 145.608C683.03 145.983 682.268 146.17 681.386 146.17ZM681.397 144.295C681.799 144.295 682.134 144.182 682.403 143.955C682.672 143.723 682.874 143.409 683.011 143.011C683.151 142.614 683.221 142.161 683.221 141.653C683.221 141.146 683.151 140.693 683.011 140.295C682.874 139.898 682.672 139.583 682.403 139.352C682.134 139.121 681.799 139.006 681.397 139.006C680.992 139.006 680.651 139.121 680.374 139.352C680.102 139.583 679.895 139.898 679.755 140.295C679.619 140.693 679.55 141.146 679.55 141.653C679.55 142.161 679.619 142.614 679.755 143.011C679.895 143.409 680.102 143.723 680.374 143.955C680.651 144.182 680.992 144.295 681.397 144.295ZM690.295 146.142C689.632 146.142 689.032 145.972 688.494 145.631C687.96 145.286 687.535 144.78 687.221 144.114C686.91 143.443 686.755 142.621 686.755 141.648C686.755 140.648 686.916 139.816 687.238 139.153C687.56 138.487 687.988 137.989 688.522 137.659C689.06 137.326 689.649 137.159 690.289 137.159C690.778 137.159 691.185 137.242 691.511 137.409C691.84 137.572 692.105 137.777 692.306 138.023C692.511 138.265 692.666 138.504 692.772 138.739H692.846V134.364H695.261V146H692.874V144.602H692.772C692.659 144.845 692.498 145.085 692.289 145.324C692.085 145.559 691.818 145.754 691.488 145.909C691.162 146.064 690.765 146.142 690.295 146.142ZM691.062 144.216C691.452 144.216 691.782 144.11 692.051 143.898C692.323 143.682 692.532 143.381 692.676 142.994C692.823 142.608 692.897 142.155 692.897 141.636C692.897 141.117 692.825 140.667 692.681 140.284C692.537 139.902 692.329 139.606 692.056 139.398C691.784 139.189 691.452 139.085 691.062 139.085C690.664 139.085 690.329 139.193 690.056 139.409C689.784 139.625 689.577 139.924 689.437 140.307C689.297 140.689 689.227 141.133 689.227 141.636C689.227 142.144 689.297 142.593 689.437 142.983C689.581 143.369 689.787 143.672 690.056 143.892C690.329 144.108 690.664 144.216 691.062 144.216ZM699.154 142.511V142.318C699.158 141.655 699.217 141.127 699.331 140.733C699.448 140.339 699.618 140.021 699.842 139.778C700.065 139.536 700.334 139.316 700.649 139.119C700.884 138.968 701.094 138.811 701.279 138.648C701.465 138.485 701.613 138.305 701.723 138.108C701.832 137.907 701.887 137.684 701.887 137.438C701.887 137.176 701.825 136.947 701.7 136.75C701.575 136.553 701.406 136.402 701.194 136.295C700.986 136.189 700.755 136.136 700.501 136.136C700.255 136.136 700.022 136.191 699.802 136.301C699.582 136.407 699.402 136.566 699.262 136.778C699.122 136.987 699.046 137.246 699.035 137.557H696.717C696.736 136.799 696.918 136.174 697.262 135.682C697.607 135.186 698.063 134.816 698.632 134.574C699.2 134.328 699.827 134.205 700.512 134.205C701.266 134.205 701.933 134.33 702.512 134.58C703.092 134.826 703.546 135.184 703.876 135.653C704.206 136.123 704.37 136.689 704.37 137.352C704.37 137.795 704.296 138.189 704.149 138.534C704.005 138.875 703.802 139.178 703.541 139.443C703.279 139.705 702.971 139.941 702.615 140.153C702.315 140.331 702.069 140.517 701.876 140.71C701.687 140.903 701.545 141.127 701.45 141.381C701.359 141.634 701.312 141.947 701.308 142.318V142.511H699.154ZM700.279 146.148C699.901 146.148 699.577 146.015 699.308 145.75C699.043 145.481 698.912 145.159 698.916 144.784C698.912 144.413 699.043 144.095 699.308 143.83C699.577 143.564 699.901 143.432 700.279 143.432C700.639 143.432 700.956 143.564 701.228 143.83C701.501 144.095 701.639 144.413 701.643 144.784C701.639 145.034 701.573 145.263 701.444 145.472C701.319 145.676 701.154 145.841 700.95 145.966C700.745 146.087 700.522 146.148 700.279 146.148Z" fill="white"/>
<path d="M505.227 102.5C504.398 102.5 503.727 103.172 503.727 104C503.727 104.828 504.398 105.5 505.227 105.5V102.5ZM552.061 105.061C552.646 104.475 552.646 103.525 552.061 102.939L542.515 93.3934C541.929 92.8076 540.979 92.8076 540.393 93.3934C539.808 93.9792 539.808 94.9289 540.393 95.5147L548.879 104L540.393 112.485C539.808 113.071 539.808 114.021 540.393 114.607C540.979 115.192 541.929 115.192 542.515 114.607L552.061 105.061ZM505.227 105.5H551V102.5H505.227V105.5Z" fill="#B3B3B3"/>
<path d="M376.522 155.203C375.936 154.617 374.986 154.617 374.4 155.203L364.854 164.749C364.269 165.335 364.269 166.284 364.854 166.87C365.44 167.456 366.39 167.456 366.976 166.87L375.461 158.385L383.946 166.87C384.532 167.456 385.482 167.456 386.068 166.87C386.653 166.284 386.653 165.335 386.068 164.749L376.522 155.203ZM660.004 231.5H555.554V234.5H660.004V231.5ZM513.554 231.5H399.461V234.5H513.554V231.5ZM376.961 209V156.264H373.961V209H376.961ZM399.461 231.5C387.035 231.5 376.961 221.426 376.961 209H373.961C373.961 223.083 385.378 234.5 399.461 234.5V231.5ZM679.504 212C679.504 222.769 670.773 231.5 660.004 231.5V234.5C672.43 234.5 682.504 224.426 682.504 212H679.504Z" fill="#B3B3B3"/>
<path d="M534.516 227.364V239H532.903L526.988 230.466H526.88V239H525.124V227.364H526.749L532.67 235.909H532.778V227.364H534.516ZM540.441 239.176C539.623 239.176 538.909 238.989 538.299 238.614C537.689 238.239 537.216 237.714 536.879 237.04C536.541 236.366 536.373 235.578 536.373 234.676C536.373 233.771 536.541 232.979 536.879 232.301C537.216 231.623 537.689 231.097 538.299 230.722C538.909 230.347 539.623 230.159 540.441 230.159C541.259 230.159 541.973 230.347 542.583 230.722C543.193 231.097 543.666 231.623 544.004 232.301C544.341 232.979 544.509 233.771 544.509 234.676C544.509 235.578 544.341 236.366 544.004 237.04C543.666 237.714 543.193 238.239 542.583 238.614C541.973 238.989 541.259 239.176 540.441 239.176ZM540.447 237.75C540.977 237.75 541.416 237.61 541.765 237.33C542.113 237.049 542.371 236.676 542.538 236.21C542.708 235.744 542.793 235.231 542.793 234.67C542.793 234.114 542.708 233.602 542.538 233.136C542.371 232.667 542.113 232.29 541.765 232.006C541.416 231.722 540.977 231.58 540.447 231.58C539.913 231.58 539.47 231.722 539.117 232.006C538.769 232.29 538.509 232.667 538.339 233.136C538.172 233.602 538.089 234.114 538.089 234.67C538.089 235.231 538.172 235.744 538.339 236.21C538.509 236.676 538.769 237.049 539.117 237.33C539.47 237.61 539.913 237.75 540.447 237.75Z" fill="black" fill-opacity="0.8"/>
<rect x="904.258" y="55.8115" width="194.799" height="96.4525" rx="6" fill="#E6E6E6"/>
<path d="M971.619 102.249H969.13C969.084 101.927 968.992 101.641 968.851 101.391C968.711 101.137 968.531 100.921 968.312 100.743C968.092 100.565 967.838 100.429 967.55 100.334C967.266 100.24 966.958 100.192 966.624 100.192C966.022 100.192 965.497 100.342 965.05 100.641C964.603 100.937 964.257 101.368 964.011 101.937C963.764 102.501 963.641 103.187 963.641 103.993C963.641 104.823 963.764 105.52 964.011 106.084C964.261 106.649 964.609 107.075 965.056 107.363C965.503 107.651 966.02 107.794 966.607 107.794C966.937 107.794 967.242 107.751 967.522 107.664C967.806 107.577 968.058 107.45 968.278 107.283C968.497 107.113 968.679 106.906 968.823 106.664C968.971 106.421 969.073 106.145 969.13 105.834L971.619 105.846C971.554 106.38 971.393 106.895 971.136 107.391C970.882 107.883 970.539 108.325 970.107 108.715C969.679 109.101 969.168 109.408 968.573 109.635C967.982 109.859 967.314 109.971 966.567 109.971C965.529 109.971 964.601 109.736 963.783 109.266C962.969 108.796 962.325 108.116 961.851 107.226C961.382 106.336 961.147 105.258 961.147 103.993C961.147 102.724 961.386 101.645 961.863 100.755C962.34 99.8646 962.988 99.1865 963.806 98.7206C964.624 98.2509 965.545 98.0161 966.567 98.0161C967.242 98.0161 967.867 98.1108 968.442 98.3002C969.022 98.4896 969.535 98.7661 969.982 99.1297C970.429 99.4896 970.793 99.9308 971.073 100.454C971.357 100.976 971.539 101.575 971.619 102.249ZM975.582 98.1752V109.812H973.161V98.1752H975.582ZM977.345 109.812V101.084H979.765V109.812H977.345ZM978.561 99.9593C978.201 99.9593 977.892 99.8399 977.634 99.6013C977.381 99.3589 977.254 99.0691 977.254 98.732C977.254 98.3986 977.381 98.1127 977.634 97.874C977.892 97.6316 978.201 97.5104 978.561 97.5104C978.92 97.5104 979.227 97.6316 979.481 97.874C979.739 98.1127 979.867 98.3986 979.867 98.732C979.867 99.0691 979.739 99.3589 979.481 99.6013C979.227 99.8399 978.92 99.9593 978.561 99.9593ZM985.471 109.982C984.577 109.982 983.808 109.793 983.164 109.414C982.524 109.031 982.032 108.501 981.687 107.823C981.346 107.145 981.176 106.365 981.176 105.482C981.176 104.588 981.348 103.804 981.693 103.13C982.041 102.452 982.536 101.923 983.176 101.544C983.816 101.162 984.577 100.971 985.46 100.971C986.221 100.971 986.888 101.109 987.46 101.385C988.032 101.662 988.484 102.05 988.818 102.55C989.151 103.05 989.335 103.637 989.369 104.312H987.085C987.02 103.876 986.85 103.526 986.573 103.26C986.301 102.991 985.943 102.857 985.5 102.857C985.125 102.857 984.797 102.959 984.517 103.164C984.24 103.365 984.024 103.658 983.869 104.044C983.714 104.431 983.636 104.899 983.636 105.448C983.636 106.005 983.712 106.478 983.863 106.868C984.019 107.258 984.236 107.556 984.517 107.76C984.797 107.965 985.125 108.067 985.5 108.067C985.776 108.067 986.024 108.01 986.244 107.897C986.467 107.783 986.651 107.618 986.795 107.402C986.943 107.183 987.039 106.919 987.085 106.613H989.369C989.331 107.279 989.149 107.866 988.823 108.374C988.501 108.878 988.056 109.272 987.488 109.556C986.92 109.84 986.248 109.982 985.471 109.982ZM992.936 107.3L992.941 104.397H993.294L996.089 101.084H998.868L995.112 105.471H994.538L992.936 107.3ZM990.743 109.812V98.1752H993.163V109.812H990.743ZM996.197 109.812L993.629 106.01L995.243 104.3L999.032 109.812H996.197ZM1013.72 102.249H1011.23C1011.18 101.927 1011.09 101.641 1010.95 101.391C1010.81 101.137 1010.63 100.921 1010.41 100.743C1010.19 100.565 1009.94 100.429 1009.65 100.334C1009.37 100.24 1009.06 100.192 1008.72 100.192C1008.12 100.192 1007.6 100.342 1007.15 100.641C1006.7 100.937 1006.36 101.368 1006.11 101.937C1005.86 102.501 1005.74 103.187 1005.74 103.993C1005.74 104.823 1005.86 105.52 1006.11 106.084C1006.36 106.649 1006.71 107.075 1007.16 107.363C1007.6 107.651 1008.12 107.794 1008.71 107.794C1009.04 107.794 1009.34 107.751 1009.62 107.664C1009.91 107.577 1010.16 107.45 1010.38 107.283C1010.6 107.113 1010.78 106.906 1010.92 106.664C1011.07 106.421 1011.17 106.145 1011.23 105.834L1013.72 105.846C1013.65 106.38 1013.49 106.895 1013.24 107.391C1012.98 107.883 1012.64 108.325 1012.21 108.715C1011.78 109.101 1011.27 109.408 1010.67 109.635C1010.08 109.859 1009.41 109.971 1008.67 109.971C1007.63 109.971 1006.7 109.736 1005.88 109.266C1005.07 108.796 1004.43 108.116 1003.95 107.226C1003.48 106.336 1003.25 105.258 1003.25 103.993C1003.25 102.724 1003.49 101.645 1003.96 100.755C1004.44 99.8646 1005.09 99.1865 1005.91 98.7206C1006.72 98.2509 1007.64 98.0161 1008.67 98.0161C1009.34 98.0161 1009.97 98.1108 1010.54 98.3002C1011.12 98.4896 1011.64 98.7661 1012.08 99.1297C1012.53 99.4896 1012.89 99.9308 1013.17 100.454C1013.46 100.976 1013.64 101.575 1013.72 102.249ZM1019.2 109.982C1018.32 109.982 1017.56 109.794 1016.91 109.419C1016.27 109.041 1015.78 108.514 1015.43 107.84C1015.08 107.162 1014.91 106.376 1014.91 105.482C1014.91 104.58 1015.08 103.793 1015.43 103.118C1015.78 102.44 1016.27 101.914 1016.91 101.539C1017.56 101.16 1018.32 100.971 1019.2 100.971C1020.09 100.971 1020.85 101.16 1021.49 101.539C1022.13 101.914 1022.63 102.44 1022.98 103.118C1023.33 103.793 1023.5 104.58 1023.5 105.482C1023.5 106.376 1023.33 107.162 1022.98 107.84C1022.63 108.514 1022.13 109.041 1021.49 109.419C1020.85 109.794 1020.09 109.982 1019.2 109.982ZM1019.22 108.107C1019.62 108.107 1019.95 107.993 1020.22 107.766C1020.49 107.535 1020.69 107.221 1020.83 106.823C1020.97 106.425 1021.04 105.973 1021.04 105.465C1021.04 104.957 1020.97 104.505 1020.83 104.107C1020.69 103.709 1020.49 103.395 1020.22 103.164C1019.95 102.933 1019.62 102.817 1019.22 102.817C1018.81 102.817 1018.47 102.933 1018.19 103.164C1017.92 103.395 1017.71 103.709 1017.57 104.107C1017.44 104.505 1017.37 104.957 1017.37 105.465C1017.37 105.973 1017.44 106.425 1017.57 106.823C1017.71 107.221 1017.92 107.535 1018.19 107.766C1018.47 107.993 1018.81 108.107 1019.22 108.107ZM1024.9 113.084V101.084H1027.28V102.55H1027.39C1027.5 102.315 1027.65 102.077 1027.85 101.834C1028.06 101.588 1028.32 101.383 1028.65 101.221C1028.98 101.054 1029.39 100.971 1029.88 100.971C1030.51 100.971 1031.1 101.137 1031.64 101.471C1032.17 101.8 1032.6 102.298 1032.93 102.965C1033.25 103.628 1033.41 104.459 1033.41 105.459C1033.41 106.433 1033.25 107.255 1032.94 107.925C1032.63 108.592 1032.2 109.098 1031.67 109.442C1031.13 109.783 1030.53 109.954 1029.87 109.954C1029.4 109.954 1029 109.876 1028.67 109.721C1028.34 109.565 1028.08 109.37 1027.87 109.135C1027.66 108.897 1027.5 108.656 1027.39 108.414H1027.32V113.084H1024.9ZM1027.27 105.448C1027.27 105.967 1027.34 106.419 1027.48 106.806C1027.63 107.192 1027.84 107.493 1028.11 107.709C1028.38 107.921 1028.71 108.027 1029.1 108.027C1029.5 108.027 1029.83 107.919 1030.1 107.704C1030.38 107.484 1030.58 107.181 1030.72 106.794C1030.87 106.404 1030.94 105.955 1030.94 105.448C1030.94 104.944 1030.87 104.501 1030.73 104.118C1030.59 103.736 1030.38 103.437 1030.11 103.221C1029.84 103.005 1029.5 102.897 1029.1 102.897C1028.71 102.897 1028.38 103.001 1028.1 103.209C1027.83 103.418 1027.63 103.713 1027.48 104.096C1027.34 104.478 1027.27 104.929 1027.27 105.448ZM1036.06 113.084C1035.75 113.084 1035.47 113.06 1035.2 113.01C1034.93 112.965 1034.71 112.906 1034.54 112.834L1035.08 111.027C1035.37 111.115 1035.62 111.162 1035.85 111.169C1036.08 111.177 1036.28 111.124 1036.45 111.01C1036.62 110.897 1036.76 110.704 1036.86 110.431L1037 110.062L1033.87 101.084H1036.42L1038.22 107.493H1038.32L1040.14 101.084H1042.7L1039.31 110.755C1039.15 111.224 1038.93 111.633 1038.65 111.982C1038.37 112.334 1038.02 112.605 1037.59 112.794C1037.17 112.988 1036.66 113.084 1036.06 113.084Z" fill="black" fill-opacity="0.8"/>
<path d="M811 102.537C810.172 102.537 809.5 103.209 809.5 104.037C809.5 104.866 810.172 105.537 811 105.537V102.537ZM901.318 105.098C901.904 104.512 901.904 103.562 901.318 102.976L891.773 93.4305C891.187 92.8447 890.237 92.8447 889.651 93.4305C889.065 94.0163 889.065 94.966 889.651 95.5518L898.136 104.037L889.651 112.522C889.065 113.108 889.065 114.058 889.651 114.644C890.237 115.229 891.187 115.229 891.773 114.644L901.318 105.098ZM811 105.537H831.629V102.537H811V105.537ZM879.629 105.537H900.258V102.537H879.629V105.537Z" fill="#B3B3B3"/>
<path d="M842.439 98.4007H844.434L847.474 103.691H847.599L850.638 98.4007H852.633L848.411 105.469V110.037H846.661V105.469L842.439 98.4007ZM856.302 110.213C855.442 110.213 854.701 110.03 854.08 109.662C853.463 109.291 852.986 108.77 852.648 108.1C852.315 107.425 852.148 106.636 852.148 105.73C852.148 104.836 852.315 104.048 852.648 103.367C852.986 102.685 853.455 102.153 854.058 101.77C854.664 101.387 855.372 101.196 856.183 101.196C856.675 101.196 857.152 101.278 857.614 101.441C858.076 101.603 858.491 101.859 858.859 102.208C859.226 102.556 859.516 103.009 859.728 103.566C859.94 104.119 860.046 104.791 860.046 105.583V106.185H853.109V104.912H858.381C858.381 104.465 858.29 104.069 858.109 103.725C857.927 103.376 857.671 103.102 857.342 102.901C857.016 102.7 856.633 102.6 856.194 102.6C855.717 102.6 855.3 102.717 854.944 102.952C854.592 103.183 854.319 103.486 854.126 103.861C853.936 104.232 853.842 104.636 853.842 105.071V106.066C853.842 106.649 853.944 107.145 854.148 107.554C854.357 107.963 854.647 108.276 855.018 108.492C855.389 108.704 855.823 108.81 856.319 108.81C856.641 108.81 856.934 108.764 857.2 108.673C857.465 108.579 857.694 108.439 857.887 108.253C858.08 108.067 858.228 107.838 858.33 107.566L859.938 107.855C859.809 108.329 859.578 108.744 859.245 109.1C858.915 109.452 858.501 109.727 858.001 109.923C857.504 110.117 856.938 110.213 856.302 110.213ZM868.295 103.441L866.755 103.713C866.691 103.516 866.588 103.329 866.448 103.151C866.312 102.973 866.126 102.827 865.891 102.713C865.657 102.6 865.363 102.543 865.011 102.543C864.53 102.543 864.128 102.651 863.806 102.867C863.484 103.079 863.323 103.353 863.323 103.691C863.323 103.982 863.431 104.217 863.647 104.395C863.863 104.573 864.212 104.719 864.693 104.833L866.079 105.151C866.882 105.336 867.48 105.622 867.874 106.009C868.268 106.395 868.465 106.897 868.465 107.514C868.465 108.037 868.314 108.503 868.011 108.912C867.712 109.317 867.293 109.636 866.755 109.867C866.221 110.098 865.602 110.213 864.897 110.213C863.92 110.213 863.123 110.005 862.505 109.588C861.888 109.168 861.509 108.571 861.369 107.798L863.011 107.548C863.113 107.977 863.323 108.3 863.641 108.52C863.96 108.736 864.374 108.844 864.886 108.844C865.443 108.844 865.888 108.728 866.221 108.497C866.554 108.262 866.721 107.977 866.721 107.639C866.721 107.367 866.619 107.137 866.414 106.952C866.213 106.766 865.905 106.626 865.488 106.531L864.011 106.208C863.196 106.022 862.594 105.727 862.204 105.321C861.818 104.916 861.624 104.403 861.624 103.781C861.624 103.266 861.768 102.816 862.056 102.429C862.344 102.043 862.742 101.742 863.249 101.526C863.757 101.306 864.338 101.196 864.994 101.196C865.937 101.196 866.679 101.401 867.221 101.81C867.763 102.215 868.121 102.759 868.295 103.441Z" fill="black" fill-opacity="0.8"/>
<rect x="1196.26" y="55" width="337.65" height="97.9248" rx="39.1699" fill="#0D99FF"/>
<path d="M1236.06 110V98.3636H1240.65C1241.53 98.3636 1242.28 98.5322 1242.9 98.8693C1243.52 99.2027 1244 99.6667 1244.32 100.261C1244.65 100.852 1244.82 101.534 1244.82 102.307C1244.82 103.08 1244.65 103.761 1244.32 104.352C1243.98 104.943 1243.5 105.403 1242.87 105.733C1242.24 106.062 1241.48 106.227 1240.58 106.227H1237.66V104.256H1240.19C1240.66 104.256 1241.05 104.174 1241.36 104.011C1241.67 103.845 1241.9 103.616 1242.05 103.324C1242.2 103.028 1242.28 102.689 1242.28 102.307C1242.28 101.92 1242.2 101.583 1242.05 101.295C1241.9 101.004 1241.67 100.778 1241.36 100.619C1241.05 100.456 1240.65 100.375 1240.17 100.375H1238.52V110H1236.06ZM1248.45 110.165C1247.89 110.165 1247.39 110.068 1246.96 109.875C1246.52 109.678 1246.18 109.388 1245.92 109.006C1245.67 108.619 1245.55 108.138 1245.55 107.562C1245.55 107.078 1245.64 106.67 1245.82 106.341C1245.99 106.011 1246.24 105.746 1246.54 105.545C1246.85 105.345 1247.2 105.193 1247.59 105.091C1247.98 104.989 1248.4 104.917 1248.83 104.875C1249.34 104.822 1249.74 104.773 1250.06 104.727C1250.37 104.678 1250.59 104.606 1250.73 104.511C1250.87 104.417 1250.94 104.277 1250.94 104.091V104.057C1250.94 103.697 1250.83 103.419 1250.6 103.222C1250.38 103.025 1250.06 102.926 1249.65 102.926C1249.21 102.926 1248.86 103.023 1248.61 103.216C1248.35 103.405 1248.18 103.644 1248.1 103.932L1245.86 103.75C1245.97 103.22 1246.19 102.761 1246.53 102.375C1246.86 101.985 1247.29 101.686 1247.82 101.477C1248.35 101.265 1248.96 101.159 1249.66 101.159C1250.14 101.159 1250.61 101.216 1251.05 101.33C1251.5 101.443 1251.89 101.619 1252.24 101.858C1252.59 102.097 1252.86 102.403 1253.06 102.778C1253.26 103.15 1253.36 103.595 1253.36 104.114V110H1251.07V108.79H1251C1250.86 109.062 1250.67 109.303 1250.44 109.511C1250.2 109.716 1249.92 109.877 1249.59 109.994C1249.26 110.108 1248.88 110.165 1248.45 110.165ZM1249.14 108.494C1249.5 108.494 1249.81 108.424 1250.08 108.284C1250.36 108.14 1250.57 107.947 1250.73 107.705C1250.88 107.462 1250.96 107.187 1250.96 106.881V105.955C1250.88 106.004 1250.78 106.049 1250.65 106.091C1250.52 106.129 1250.37 106.165 1250.21 106.199C1250.05 106.229 1249.88 106.258 1249.72 106.284C1249.56 106.307 1249.41 106.328 1249.28 106.347C1248.99 106.388 1248.74 106.455 1248.53 106.545C1248.32 106.636 1248.16 106.759 1248.04 106.915C1247.92 107.066 1247.86 107.256 1247.86 107.483C1247.86 107.812 1247.98 108.064 1248.22 108.239C1248.46 108.409 1248.77 108.494 1249.14 108.494ZM1262.33 103.761L1260.11 103.898C1260.07 103.708 1259.99 103.538 1259.87 103.386C1259.74 103.231 1259.58 103.108 1259.37 103.017C1259.17 102.922 1258.93 102.875 1258.65 102.875C1258.27 102.875 1257.96 102.955 1257.7 103.114C1257.44 103.269 1257.31 103.477 1257.31 103.739C1257.31 103.947 1257.4 104.123 1257.56 104.267C1257.73 104.411 1258.02 104.527 1258.42 104.614L1260 104.932C1260.85 105.106 1261.48 105.386 1261.9 105.773C1262.32 106.159 1262.52 106.667 1262.52 107.295C1262.52 107.867 1262.36 108.369 1262.02 108.801C1261.69 109.233 1261.23 109.57 1260.64 109.812C1260.06 110.051 1259.4 110.17 1258.64 110.17C1257.48 110.17 1256.56 109.93 1255.88 109.449C1255.19 108.964 1254.79 108.305 1254.68 107.472L1257.06 107.347C1257.13 107.699 1257.3 107.968 1257.58 108.153C1257.86 108.335 1258.21 108.426 1258.64 108.426C1259.07 108.426 1259.41 108.345 1259.67 108.182C1259.93 108.015 1260.06 107.801 1260.06 107.54C1260.06 107.32 1259.97 107.14 1259.79 107C1259.6 106.856 1259.32 106.746 1258.94 106.67L1257.43 106.369C1256.58 106.199 1255.95 105.903 1255.53 105.483C1255.12 105.062 1254.91 104.527 1254.91 103.875C1254.91 103.314 1255.06 102.831 1255.37 102.426C1255.67 102.021 1256.1 101.708 1256.65 101.489C1257.21 101.269 1257.86 101.159 1258.61 101.159C1259.71 101.159 1260.58 101.392 1261.21 101.858C1261.85 102.324 1262.22 102.958 1262.33 103.761ZM1268.51 101.273V103.091H1263.26V101.273H1268.51ZM1264.45 99.1818H1266.87V107.318C1266.87 107.542 1266.91 107.716 1266.97 107.841C1267.04 107.962 1267.14 108.047 1267.26 108.097C1267.38 108.146 1267.53 108.17 1267.69 108.17C1267.8 108.17 1267.92 108.161 1268.03 108.142C1268.15 108.119 1268.23 108.102 1268.29 108.091L1268.67 109.892C1268.55 109.93 1268.38 109.973 1268.16 110.023C1267.94 110.076 1267.68 110.108 1267.36 110.119C1266.78 110.142 1266.27 110.064 1265.83 109.886C1265.39 109.708 1265.05 109.432 1264.81 109.057C1264.57 108.682 1264.45 108.208 1264.45 107.636V99.1818ZM1273.8 110.17C1272.9 110.17 1272.13 109.989 1271.48 109.625C1270.84 109.258 1270.34 108.739 1269.99 108.068C1269.64 107.394 1269.47 106.597 1269.47 105.676C1269.47 104.778 1269.64 103.991 1269.99 103.312C1270.34 102.634 1270.83 102.106 1271.46 101.727C1272.1 101.348 1272.85 101.159 1273.7 101.159C1274.28 101.159 1274.81 101.252 1275.31 101.438C1275.81 101.619 1276.25 101.894 1276.62 102.261C1276.99 102.629 1277.28 103.091 1277.49 103.648C1277.7 104.201 1277.8 104.848 1277.8 105.591V106.256H1270.43V104.756H1275.53C1275.53 104.407 1275.45 104.098 1275.3 103.83C1275.15 103.561 1274.94 103.35 1274.67 103.199C1274.4 103.044 1274.09 102.966 1273.74 102.966C1273.37 102.966 1273.05 103.051 1272.76 103.222C1272.48 103.388 1272.26 103.614 1272.11 103.898C1271.95 104.178 1271.86 104.491 1271.86 104.835V106.261C1271.86 106.693 1271.94 107.066 1272.1 107.381C1272.26 107.695 1272.49 107.938 1272.79 108.108C1273.08 108.278 1273.43 108.364 1273.84 108.364C1274.11 108.364 1274.35 108.326 1274.58 108.25C1274.8 108.174 1274.99 108.061 1275.15 107.909C1275.31 107.758 1275.43 107.572 1275.51 107.352L1277.75 107.5C1277.64 108.038 1277.41 108.508 1277.05 108.909C1276.71 109.307 1276.26 109.617 1275.7 109.841C1275.15 110.061 1274.52 110.17 1273.8 110.17ZM1282.73 110V101.273H1285.16V110H1282.73ZM1283.95 100.148C1283.59 100.148 1283.28 100.028 1283.02 99.7898C1282.77 99.5473 1282.64 99.2576 1282.64 98.9205C1282.64 98.5871 1282.77 98.3011 1283.02 98.0625C1283.28 97.8201 1283.59 97.6989 1283.95 97.6989C1284.31 97.6989 1284.62 97.8201 1284.87 98.0625C1285.13 98.3011 1285.26 98.5871 1285.26 98.9205C1285.26 99.2576 1285.13 99.5473 1284.87 99.7898C1284.62 100.028 1284.31 100.148 1283.95 100.148ZM1289.34 104.955V110H1286.92V101.273H1289.23V102.812H1289.33C1289.52 102.305 1289.84 101.903 1290.3 101.608C1290.75 101.309 1291.3 101.159 1291.95 101.159C1292.56 101.159 1293.09 101.292 1293.54 101.557C1293.99 101.822 1294.34 102.201 1294.59 102.693C1294.84 103.182 1294.96 103.765 1294.96 104.443V110H1292.54V104.875C1292.55 104.341 1292.41 103.924 1292.13 103.625C1291.86 103.322 1291.48 103.17 1290.99 103.17C1290.67 103.17 1290.38 103.241 1290.13 103.381C1289.88 103.521 1289.69 103.725 1289.55 103.994C1289.41 104.259 1289.34 104.58 1289.34 104.955ZM1301.34 101.273V103.091H1296.08V101.273H1301.34ZM1297.27 99.1818H1299.7V107.318C1299.7 107.542 1299.73 107.716 1299.8 107.841C1299.87 107.962 1299.96 108.047 1300.08 108.097C1300.21 108.146 1300.35 108.17 1300.51 108.17C1300.63 108.17 1300.74 108.161 1300.85 108.142C1300.97 108.119 1301.06 108.102 1301.12 108.091L1301.5 109.892C1301.38 109.93 1301.2 109.973 1300.99 110.023C1300.77 110.076 1300.5 110.108 1300.18 110.119C1299.6 110.142 1299.09 110.064 1298.65 109.886C1298.21 109.708 1297.88 109.432 1297.63 109.057C1297.39 108.682 1297.27 108.208 1297.27 107.636V99.1818ZM1306.59 110.17C1305.71 110.17 1304.94 109.983 1304.3 109.608C1303.66 109.229 1303.16 108.703 1302.81 108.028C1302.47 107.35 1302.29 106.564 1302.29 105.67C1302.29 104.769 1302.47 103.981 1302.81 103.307C1303.16 102.629 1303.66 102.102 1304.3 101.727C1304.94 101.348 1305.71 101.159 1306.59 101.159C1307.47 101.159 1308.23 101.348 1308.87 101.727C1309.52 102.102 1310.01 102.629 1310.36 103.307C1310.71 103.981 1310.88 104.769 1310.88 105.67C1310.88 106.564 1310.71 107.35 1310.36 108.028C1310.01 108.703 1309.52 109.229 1308.87 109.608C1308.23 109.983 1307.47 110.17 1306.59 110.17ZM1306.6 108.295C1307 108.295 1307.34 108.182 1307.6 107.955C1307.87 107.723 1308.08 107.409 1308.21 107.011C1308.35 106.614 1308.42 106.161 1308.42 105.653C1308.42 105.146 1308.35 104.693 1308.21 104.295C1308.08 103.898 1307.87 103.583 1307.6 103.352C1307.34 103.121 1307 103.006 1306.6 103.006C1306.19 103.006 1305.85 103.121 1305.58 103.352C1305.3 103.583 1305.1 103.898 1304.96 104.295C1304.82 104.693 1304.75 105.146 1304.75 105.653C1304.75 106.161 1304.82 106.614 1304.96 107.011C1305.1 107.409 1305.3 107.723 1305.58 107.955C1305.85 108.182 1306.19 108.295 1306.6 108.295ZM1319.79 110.17C1318.89 110.17 1318.11 109.989 1317.47 109.625C1316.82 109.258 1316.33 108.739 1315.98 108.068C1315.63 107.394 1315.46 106.597 1315.46 105.676C1315.46 104.778 1315.63 103.991 1315.98 103.312C1316.33 102.634 1316.82 102.106 1317.45 101.727C1318.09 101.348 1318.83 101.159 1319.69 101.159C1320.26 101.159 1320.8 101.252 1321.3 101.438C1321.8 101.619 1322.23 101.894 1322.6 102.261C1322.98 102.629 1323.27 103.091 1323.48 103.648C1323.69 104.201 1323.79 104.848 1323.79 105.591V106.256H1316.42V104.756H1321.51C1321.51 104.407 1321.44 104.098 1321.29 103.83C1321.13 103.561 1320.92 103.35 1320.65 103.199C1320.39 103.044 1320.08 102.966 1319.73 102.966C1319.36 102.966 1319.04 103.051 1318.75 103.222C1318.47 103.388 1318.25 103.614 1318.09 103.898C1317.93 104.178 1317.85 104.491 1317.85 104.835V106.261C1317.85 106.693 1317.93 107.066 1318.09 107.381C1318.25 107.695 1318.48 107.938 1318.77 108.108C1319.07 108.278 1319.42 108.364 1319.83 108.364C1320.09 108.364 1320.34 108.326 1320.56 108.25C1320.79 108.174 1320.98 108.061 1321.14 107.909C1321.3 107.758 1321.42 107.572 1321.5 107.352L1323.74 107.5C1323.63 108.038 1323.39 108.508 1323.04 108.909C1322.69 109.307 1322.24 109.617 1321.69 109.841C1321.14 110.061 1320.51 110.17 1319.79 110.17ZM1325.19 110V101.273H1327.5V102.812H1327.6C1327.79 102.301 1328.09 101.898 1328.51 101.602C1328.94 101.307 1329.44 101.159 1330.04 101.159C1330.63 101.159 1331.14 101.309 1331.56 101.608C1331.98 101.903 1332.26 102.305 1332.4 102.812H1332.5C1332.67 102.312 1333 101.913 1333.46 101.614C1333.93 101.311 1334.49 101.159 1335.13 101.159C1335.94 101.159 1336.6 101.419 1337.11 101.938C1337.62 102.453 1337.88 103.184 1337.88 104.131V110H1335.46V104.608C1335.46 104.123 1335.33 103.759 1335.08 103.517C1334.82 103.275 1334.5 103.153 1334.11 103.153C1333.67 103.153 1333.33 103.294 1333.08 103.574C1332.83 103.85 1332.71 104.216 1332.71 104.67V110H1330.37V104.557C1330.37 104.129 1330.24 103.788 1330 103.534C1329.75 103.28 1329.43 103.153 1329.04 103.153C1328.77 103.153 1328.52 103.222 1328.31 103.358C1328.1 103.491 1327.93 103.678 1327.8 103.92C1327.68 104.159 1327.62 104.439 1327.62 104.761V110H1325.19ZM1342.1 110.165C1341.54 110.165 1341.05 110.068 1340.61 109.875C1340.18 109.678 1339.83 109.388 1339.58 109.006C1339.33 108.619 1339.2 108.138 1339.2 107.562C1339.2 107.078 1339.29 106.67 1339.47 106.341C1339.65 106.011 1339.89 105.746 1340.2 105.545C1340.5 105.345 1340.85 105.193 1341.24 105.091C1341.64 104.989 1342.05 104.917 1342.48 104.875C1342.99 104.822 1343.4 104.773 1343.71 104.727C1344.02 104.678 1344.24 104.606 1344.39 104.511C1344.53 104.417 1344.6 104.277 1344.6 104.091V104.057C1344.6 103.697 1344.48 103.419 1344.25 103.222C1344.03 103.025 1343.71 102.926 1343.3 102.926C1342.86 102.926 1342.52 103.023 1342.26 103.216C1342 103.405 1341.83 103.644 1341.75 103.932L1339.51 103.75C1339.62 103.22 1339.85 102.761 1340.18 102.375C1340.51 101.985 1340.94 101.686 1341.47 101.477C1342 101.265 1342.61 101.159 1343.31 101.159C1343.8 101.159 1344.26 101.216 1344.7 101.33C1345.15 101.443 1345.55 101.619 1345.89 101.858C1346.24 102.097 1346.51 102.403 1346.71 102.778C1346.92 103.15 1347.02 103.595 1347.02 104.114V110H1344.72V108.79H1344.65C1344.51 109.062 1344.32 109.303 1344.09 109.511C1343.85 109.716 1343.57 109.877 1343.24 109.994C1342.91 110.108 1342.53 110.165 1342.1 110.165ZM1342.79 108.494C1343.15 108.494 1343.46 108.424 1343.74 108.284C1344.01 108.14 1344.22 107.947 1344.38 107.705C1344.53 107.462 1344.61 107.187 1344.61 106.881V105.955C1344.54 106.004 1344.43 106.049 1344.3 106.091C1344.17 106.129 1344.03 106.165 1343.86 106.199C1343.7 106.229 1343.54 106.258 1343.37 106.284C1343.21 106.307 1343.06 106.328 1342.93 106.347C1342.65 106.388 1342.4 106.455 1342.19 106.545C1341.97 106.636 1341.81 106.759 1341.69 106.915C1341.57 107.066 1341.52 107.256 1341.52 107.483C1341.52 107.812 1341.64 108.064 1341.87 108.239C1342.12 108.409 1342.42 108.494 1342.79 108.494ZM1348.72 110V101.273H1351.14V110H1348.72ZM1349.93 100.148C1349.57 100.148 1349.26 100.028 1349.01 99.7898C1348.75 99.5473 1348.63 99.2576 1348.63 98.9205C1348.63 98.5871 1348.75 98.3011 1349.01 98.0625C1349.26 97.8201 1349.57 97.6989 1349.93 97.6989C1350.29 97.6989 1350.6 97.8201 1350.85 98.0625C1351.11 98.3011 1351.24 98.5871 1351.24 98.9205C1351.24 99.2576 1351.11 99.5473 1350.85 99.7898C1350.6 100.028 1350.29 100.148 1349.93 100.148ZM1355.32 98.3636V110H1352.9V98.3636H1355.32ZM1367.87 103.761L1365.66 103.898C1365.62 103.708 1365.54 103.538 1365.41 103.386C1365.29 103.231 1365.12 103.108 1364.92 103.017C1364.72 102.922 1364.48 102.875 1364.2 102.875C1363.82 102.875 1363.51 102.955 1363.25 103.114C1362.99 103.269 1362.86 103.477 1362.86 103.739C1362.86 103.947 1362.94 104.123 1363.11 104.267C1363.28 104.411 1363.56 104.527 1363.97 104.614L1365.55 104.932C1366.4 105.106 1367.03 105.386 1367.45 105.773C1367.86 106.159 1368.07 106.667 1368.07 107.295C1368.07 107.867 1367.9 108.369 1367.57 108.801C1367.23 109.233 1366.77 109.57 1366.19 109.812C1365.61 110.051 1364.94 110.17 1364.19 110.17C1363.03 110.17 1362.11 109.93 1361.42 109.449C1360.74 108.964 1360.34 108.305 1360.23 107.472L1362.61 107.347C1362.68 107.699 1362.85 107.968 1363.13 108.153C1363.41 108.335 1363.76 108.426 1364.19 108.426C1364.62 108.426 1364.96 108.345 1365.21 108.182C1365.48 108.015 1365.61 107.801 1365.61 107.54C1365.61 107.32 1365.51 107.14 1365.33 107C1365.15 106.856 1364.87 106.746 1364.49 106.67L1362.98 106.369C1362.13 106.199 1361.49 105.903 1361.08 105.483C1360.66 105.062 1360.46 104.527 1360.46 103.875C1360.46 103.314 1360.61 102.831 1360.91 102.426C1361.22 102.021 1361.65 101.708 1362.2 101.489C1362.76 101.269 1363.41 101.159 1364.16 101.159C1365.26 101.159 1366.13 101.392 1366.76 101.858C1367.4 102.324 1367.77 102.958 1367.87 103.761ZM1369.42 110V101.273H1371.84V110H1369.42ZM1370.64 100.148C1370.28 100.148 1369.97 100.028 1369.71 99.7898C1369.46 99.5473 1369.33 99.2576 1369.33 98.9205C1369.33 98.5871 1369.46 98.3011 1369.71 98.0625C1369.97 97.8201 1370.28 97.6989 1370.64 97.6989C1371 97.6989 1371.3 97.8201 1371.56 98.0625C1371.81 98.3011 1371.94 98.5871 1371.94 98.9205C1371.94 99.2576 1371.81 99.5473 1371.56 99.7898C1371.3 100.028 1371 100.148 1370.64 100.148ZM1377.54 113.455C1376.75 113.455 1376.08 113.347 1375.52 113.131C1374.96 112.919 1374.52 112.629 1374.19 112.261C1373.86 111.894 1373.64 111.481 1373.55 111.023L1375.79 110.722C1375.85 110.896 1375.96 111.059 1376.11 111.21C1376.26 111.362 1376.45 111.483 1376.69 111.574C1376.94 111.669 1377.24 111.716 1377.59 111.716C1378.12 111.716 1378.55 111.587 1378.89 111.33C1379.24 111.076 1379.41 110.65 1379.41 110.051V108.455H1379.31C1379.2 108.697 1379.04 108.926 1378.83 109.142C1378.62 109.358 1378.35 109.534 1378.01 109.67C1377.68 109.807 1377.28 109.875 1376.82 109.875C1376.16 109.875 1375.57 109.723 1375.03 109.42C1374.5 109.114 1374.07 108.646 1373.75 108.017C1373.44 107.384 1373.28 106.585 1373.28 105.619C1373.28 104.631 1373.44 103.805 1373.76 103.142C1374.08 102.479 1374.51 101.983 1375.05 101.653C1375.58 101.324 1376.17 101.159 1376.81 101.159C1377.3 101.159 1377.71 101.242 1378.04 101.409C1378.37 101.572 1378.64 101.777 1378.84 102.023C1379.04 102.265 1379.2 102.504 1379.31 102.739H1379.4V101.273H1381.8V110.085C1381.8 110.828 1381.62 111.449 1381.26 111.949C1380.89 112.449 1380.39 112.824 1379.75 113.074C1379.11 113.328 1378.37 113.455 1377.54 113.455ZM1377.59 108.057C1377.98 108.057 1378.31 107.96 1378.57 107.767C1378.85 107.57 1379.06 107.29 1379.2 106.926C1379.35 106.559 1379.42 106.119 1379.42 105.608C1379.42 105.097 1379.35 104.653 1379.21 104.278C1379.06 103.9 1378.85 103.606 1378.58 103.398C1378.31 103.189 1377.98 103.085 1377.59 103.085C1377.19 103.085 1376.85 103.193 1376.58 103.409C1376.31 103.621 1376.1 103.917 1375.96 104.295C1375.82 104.674 1375.75 105.112 1375.75 105.608C1375.75 106.112 1375.82 106.547 1375.96 106.915C1376.11 107.278 1376.31 107.561 1376.58 107.761C1376.85 107.958 1377.19 108.057 1377.59 108.057ZM1385.97 104.955V110H1383.55V101.273H1385.86V102.812H1385.96C1386.15 102.305 1386.48 101.903 1386.93 101.608C1387.39 101.309 1387.94 101.159 1388.59 101.159C1389.19 101.159 1389.72 101.292 1390.17 101.557C1390.62 101.822 1390.97 102.201 1391.22 102.693C1391.47 103.182 1391.6 103.765 1391.6 104.443V110H1389.18V104.875C1389.18 104.341 1389.04 103.924 1388.77 103.625C1388.49 103.322 1388.11 103.17 1387.63 103.17C1387.3 103.17 1387.01 103.241 1386.76 103.381C1386.52 103.521 1386.32 103.725 1386.18 103.994C1386.05 104.259 1385.98 104.58 1385.97 104.955ZM1395.82 110.165C1395.26 110.165 1394.76 110.068 1394.33 109.875C1393.89 109.678 1393.55 109.388 1393.3 109.006C1393.05 108.619 1392.92 108.138 1392.92 107.562C1392.92 107.078 1393.01 106.67 1393.19 106.341C1393.37 106.011 1393.61 105.746 1393.91 105.545C1394.22 105.345 1394.57 105.193 1394.96 105.091C1395.35 104.989 1395.77 104.917 1396.2 104.875C1396.71 104.822 1397.12 104.773 1397.43 104.727C1397.74 104.678 1397.96 104.606 1398.1 104.511C1398.24 104.417 1398.31 104.277 1398.31 104.091V104.057C1398.31 103.697 1398.2 103.419 1397.97 103.222C1397.75 103.025 1397.43 102.926 1397.02 102.926C1396.58 102.926 1396.23 103.023 1395.98 103.216C1395.72 103.405 1395.55 103.644 1395.47 103.932L1393.23 103.75C1393.34 103.22 1393.56 102.761 1393.9 102.375C1394.23 101.985 1394.66 101.686 1395.19 101.477C1395.72 101.265 1396.33 101.159 1397.03 101.159C1397.51 101.159 1397.98 101.216 1398.42 101.33C1398.87 101.443 1399.26 101.619 1399.61 101.858C1399.96 102.097 1400.23 102.403 1400.43 102.778C1400.63 103.15 1400.73 103.595 1400.73 104.114V110H1398.44V108.79H1398.37C1398.23 109.062 1398.04 109.303 1397.81 109.511C1397.57 109.716 1397.29 109.877 1396.96 109.994C1396.63 110.108 1396.25 110.165 1395.82 110.165ZM1396.51 108.494C1396.87 108.494 1397.18 108.424 1397.45 108.284C1397.73 108.14 1397.94 107.947 1398.1 107.705C1398.25 107.462 1398.33 107.187 1398.33 106.881V105.955C1398.25 106.004 1398.15 106.049 1398.02 106.091C1397.89 106.129 1397.74 106.165 1397.58 106.199C1397.42 106.229 1397.25 106.258 1397.09 106.284C1396.93 106.307 1396.78 106.328 1396.65 106.347C1396.36 106.388 1396.12 106.455 1395.9 106.545C1395.69 106.636 1395.53 106.759 1395.41 106.915C1395.29 107.066 1395.23 107.256 1395.23 107.483C1395.23 107.812 1395.35 108.064 1395.59 108.239C1395.83 108.409 1396.14 108.494 1396.51 108.494ZM1407.08 101.273V103.091H1401.82V101.273H1407.08ZM1403.01 99.1818H1405.43V107.318C1405.43 107.542 1405.47 107.716 1405.54 107.841C1405.61 107.962 1405.7 108.047 1405.82 108.097C1405.95 108.146 1406.09 108.17 1406.25 108.17C1406.37 108.17 1406.48 108.161 1406.59 108.142C1406.71 108.119 1406.79 108.102 1406.86 108.091L1407.24 109.892C1407.11 109.93 1406.94 109.973 1406.72 110.023C1406.5 110.076 1406.24 110.108 1405.92 110.119C1405.34 110.142 1404.83 110.064 1404.39 109.886C1403.95 109.708 1403.61 109.432 1403.37 109.057C1403.13 108.682 1403.01 108.208 1403.01 107.636V99.1818ZM1414.07 106.284V101.273H1416.49V110H1414.17V108.415H1414.08C1413.88 108.926 1413.55 109.337 1413.1 109.648C1412.64 109.958 1412.09 110.114 1411.43 110.114C1410.85 110.114 1410.34 109.981 1409.89 109.716C1409.45 109.451 1409.1 109.074 1408.85 108.585C1408.61 108.097 1408.48 107.511 1408.48 106.83V101.273H1410.9V106.398C1410.9 106.913 1411.04 107.32 1411.31 107.619C1411.59 107.919 1411.95 108.068 1412.41 108.068C1412.7 108.068 1412.97 108.002 1413.23 107.869C1413.48 107.733 1413.69 107.532 1413.84 107.267C1414 107.002 1414.08 106.674 1414.07 106.284ZM1418.25 110V101.273H1420.6V102.795H1420.69C1420.85 102.254 1421.12 101.845 1421.49 101.568C1421.87 101.288 1422.3 101.148 1422.79 101.148C1422.91 101.148 1423.04 101.155 1423.18 101.17C1423.32 101.186 1423.44 101.206 1423.55 101.233V103.381C1423.44 103.347 1423.28 103.316 1423.08 103.29C1422.88 103.263 1422.69 103.25 1422.53 103.25C1422.17 103.25 1421.85 103.328 1421.57 103.483C1421.3 103.634 1421.08 103.847 1420.91 104.119C1420.75 104.392 1420.67 104.706 1420.67 105.062V110H1418.25ZM1428.2 110.17C1427.3 110.17 1426.53 109.989 1425.88 109.625C1425.23 109.258 1424.74 108.739 1424.39 108.068C1424.04 107.394 1423.87 106.597 1423.87 105.676C1423.87 104.778 1424.04 103.991 1424.39 103.312C1424.74 102.634 1425.23 102.106 1425.86 101.727C1426.5 101.348 1427.24 101.159 1428.1 101.159C1428.68 101.159 1429.21 101.252 1429.71 101.438C1430.21 101.619 1430.64 101.894 1431.01 102.261C1431.39 102.629 1431.68 103.091 1431.89 103.648C1432.1 104.201 1432.2 104.848 1432.2 105.591V106.256H1424.83V104.756H1429.92C1429.92 104.407 1429.85 104.098 1429.7 103.83C1429.54 103.561 1429.33 103.35 1429.07 103.199C1428.8 103.044 1428.49 102.966 1428.14 102.966C1427.77 102.966 1427.45 103.051 1427.16 103.222C1426.88 103.388 1426.66 103.614 1426.5 103.898C1426.34 104.178 1426.26 104.491 1426.26 104.835V106.261C1426.26 106.693 1426.34 107.066 1426.5 107.381C1426.66 107.695 1426.89 107.938 1427.18 108.108C1427.48 108.278 1427.83 108.364 1428.24 108.364C1428.51 108.364 1428.75 108.326 1428.97 108.25C1429.2 108.174 1429.39 108.061 1429.55 107.909C1429.71 107.758 1429.83 107.572 1429.91 107.352L1432.15 107.5C1432.04 108.038 1431.8 108.508 1431.45 108.909C1431.1 109.307 1430.65 109.617 1430.1 109.841C1429.55 110.061 1428.92 110.17 1428.2 110.17ZM1444.39 103.761L1442.18 103.898C1442.14 103.708 1442.06 103.538 1441.93 103.386C1441.81 103.231 1441.64 103.108 1441.44 103.017C1441.24 102.922 1441 102.875 1440.72 102.875C1440.34 102.875 1440.03 102.955 1439.77 103.114C1439.51 103.269 1439.38 103.477 1439.38 103.739C1439.38 103.947 1439.47 104.123 1439.63 104.267C1439.8 104.411 1440.09 104.527 1440.49 104.614L1442.07 104.932C1442.92 105.106 1443.55 105.386 1443.97 105.773C1444.38 106.159 1444.59 106.667 1444.59 107.295C1444.59 107.867 1444.42 108.369 1444.09 108.801C1443.75 109.233 1443.3 109.57 1442.71 109.812C1442.13 110.051 1441.46 110.17 1440.71 110.17C1439.55 110.17 1438.63 109.93 1437.95 109.449C1437.26 108.964 1436.86 108.305 1436.75 107.472L1439.13 107.347C1439.2 107.699 1439.37 107.968 1439.65 108.153C1439.93 108.335 1440.28 108.426 1440.71 108.426C1441.14 108.426 1441.48 108.345 1441.73 108.182C1442 108.015 1442.13 107.801 1442.13 107.54C1442.13 107.32 1442.04 107.14 1441.85 107C1441.67 106.856 1441.39 106.746 1441.01 106.67L1439.5 106.369C1438.65 106.199 1438.02 105.903 1437.6 105.483C1437.19 105.062 1436.98 104.527 1436.98 103.875C1436.98 103.314 1437.13 102.831 1437.43 102.426C1437.74 102.021 1438.17 101.708 1438.72 101.489C1439.28 101.269 1439.93 101.159 1440.68 101.159C1441.78 101.159 1442.65 101.392 1443.28 101.858C1443.92 102.324 1444.29 102.958 1444.39 103.761ZM1449.92 110.17C1449.02 110.17 1448.25 109.989 1447.6 109.625C1446.96 109.258 1446.46 108.739 1446.11 108.068C1445.76 107.394 1445.59 106.597 1445.59 105.676C1445.59 104.778 1445.76 103.991 1446.11 103.312C1446.46 102.634 1446.95 102.106 1447.58 101.727C1448.22 101.348 1448.97 101.159 1449.82 101.159C1450.4 101.159 1450.93 101.252 1451.43 101.438C1451.93 101.619 1452.37 101.894 1452.74 102.261C1453.11 102.629 1453.4 103.091 1453.61 103.648C1453.82 104.201 1453.92 104.848 1453.92 105.591V106.256H1446.55V104.756H1451.65C1451.65 104.407 1451.57 104.098 1451.42 103.83C1451.27 103.561 1451.06 103.35 1450.79 103.199C1450.52 103.044 1450.21 102.966 1449.86 102.966C1449.49 102.966 1449.17 103.051 1448.88 103.222C1448.6 103.388 1448.38 103.614 1448.23 103.898C1448.07 104.178 1447.98 104.491 1447.98 104.835V106.261C1447.98 106.693 1448.06 107.066 1448.22 107.381C1448.38 107.695 1448.61 107.938 1448.91 108.108C1449.2 108.278 1449.55 108.364 1449.96 108.364C1450.23 108.364 1450.47 108.326 1450.7 108.25C1450.92 108.174 1451.11 108.061 1451.27 107.909C1451.43 107.758 1451.55 107.572 1451.63 107.352L1453.87 107.5C1453.76 108.038 1453.53 108.508 1453.17 108.909C1452.83 109.307 1452.37 109.617 1451.82 109.841C1451.27 110.061 1450.64 110.17 1449.92 110.17ZM1459.97 101.273V103.091H1454.71V101.273H1459.97ZM1455.91 99.1818H1458.33V107.318C1458.33 107.542 1458.36 107.716 1458.43 107.841C1458.5 107.962 1458.59 108.047 1458.71 108.097C1458.84 108.146 1458.98 108.17 1459.15 108.17C1459.26 108.17 1459.37 108.161 1459.49 108.142C1459.6 108.119 1459.69 108.102 1459.75 108.091L1460.13 109.892C1460.01 109.93 1459.84 109.973 1459.62 110.023C1459.4 110.076 1459.13 110.108 1458.82 110.119C1458.23 110.142 1457.72 110.064 1457.28 109.886C1456.85 109.708 1456.51 109.432 1456.27 109.057C1456.02 108.682 1455.9 108.208 1455.91 107.636V99.1818ZM1466.01 101.273V103.091H1460.76V101.273H1466.01ZM1461.95 99.1818H1464.37V107.318C1464.37 107.542 1464.4 107.716 1464.47 107.841C1464.54 107.962 1464.64 108.047 1464.76 108.097C1464.88 108.146 1465.03 108.17 1465.19 108.17C1465.3 108.17 1465.42 108.161 1465.53 108.142C1465.64 108.119 1465.73 108.102 1465.79 108.091L1466.17 109.892C1466.05 109.93 1465.88 109.973 1465.66 110.023C1465.44 110.076 1465.17 110.108 1464.86 110.119C1464.28 110.142 1463.76 110.064 1463.32 109.886C1462.89 109.708 1462.55 109.432 1462.31 109.057C1462.07 108.682 1461.95 108.208 1461.95 107.636V99.1818ZM1467.41 110V101.273H1469.83V110H1467.41ZM1468.63 100.148C1468.27 100.148 1467.96 100.028 1467.7 99.7898C1467.45 99.5473 1467.32 99.2576 1467.32 98.9205C1467.32 98.5871 1467.45 98.3011 1467.7 98.0625C1467.96 97.8201 1468.27 97.6989 1468.63 97.6989C1468.99 97.6989 1469.3 97.8201 1469.55 98.0625C1469.81 98.3011 1469.94 98.5871 1469.94 98.9205C1469.94 99.2576 1469.81 99.5473 1469.55 99.7898C1469.3 100.028 1468.99 100.148 1468.63 100.148ZM1474.02 104.955V110H1471.6V101.273H1473.9V102.812H1474.01C1474.2 102.305 1474.52 101.903 1474.98 101.608C1475.43 101.309 1475.98 101.159 1476.63 101.159C1477.24 101.159 1477.76 101.292 1478.22 101.557C1478.67 101.822 1479.02 102.201 1479.27 102.693C1479.52 103.182 1479.64 103.765 1479.64 104.443V110H1477.22V104.875C1477.23 104.341 1477.09 103.924 1476.81 103.625C1476.54 103.322 1476.16 103.17 1475.67 103.17C1475.34 103.17 1475.06 103.241 1474.81 103.381C1474.56 103.521 1474.37 103.725 1474.23 103.994C1474.09 104.259 1474.02 104.58 1474.02 104.955ZM1485.31 113.455C1484.52 113.455 1483.85 113.347 1483.29 113.131C1482.73 112.919 1482.29 112.629 1481.96 112.261C1481.63 111.894 1481.42 111.481 1481.32 111.023L1483.56 110.722C1483.62 110.896 1483.73 111.059 1483.88 111.21C1484.03 111.362 1484.22 111.483 1484.46 111.574C1484.71 111.669 1485.01 111.716 1485.36 111.716C1485.89 111.716 1486.32 111.587 1486.66 111.33C1487.01 111.076 1487.18 110.65 1487.18 110.051V108.455H1487.08C1486.97 108.697 1486.81 108.926 1486.6 109.142C1486.39 109.358 1486.12 109.534 1485.78 109.67C1485.45 109.807 1485.05 109.875 1484.59 109.875C1483.93 109.875 1483.34 109.723 1482.8 109.42C1482.27 109.114 1481.84 108.646 1481.52 108.017C1481.21 107.384 1481.05 106.585 1481.05 105.619C1481.05 104.631 1481.21 103.805 1481.53 103.142C1481.85 102.479 1482.28 101.983 1482.82 101.653C1483.35 101.324 1483.94 101.159 1484.58 101.159C1485.07 101.159 1485.48 101.242 1485.81 101.409C1486.14 101.572 1486.41 101.777 1486.61 102.023C1486.81 102.265 1486.97 102.504 1487.08 102.739H1487.17V101.273H1489.57V110.085C1489.57 110.828 1489.39 111.449 1489.03 111.949C1488.66 112.449 1488.16 112.824 1487.52 113.074C1486.88 113.328 1486.14 113.455 1485.31 113.455ZM1485.36 108.057C1485.75 108.057 1486.08 107.96 1486.35 107.767C1486.62 107.57 1486.83 107.29 1486.97 106.926C1487.12 106.559 1487.19 106.119 1487.19 105.608C1487.19 105.097 1487.12 104.653 1486.98 104.278C1486.83 103.9 1486.62 103.606 1486.35 103.398C1486.08 103.189 1485.75 103.085 1485.36 103.085C1484.96 103.085 1484.62 103.193 1484.35 103.409C1484.08 103.621 1483.87 103.917 1483.73 104.295C1483.59 104.674 1483.52 105.112 1483.52 105.608C1483.52 106.112 1483.59 106.547 1483.73 106.915C1483.88 107.278 1484.08 107.561 1484.35 107.761C1484.62 107.958 1484.96 108.057 1485.36 108.057ZM1492.74 110.148C1492.36 110.148 1492.04 110.015 1491.77 109.75C1491.51 109.481 1491.37 109.159 1491.37 108.784C1491.37 108.413 1491.51 108.095 1491.77 107.83C1492.04 107.564 1492.36 107.432 1492.74 107.432C1493.1 107.432 1493.42 107.564 1493.69 107.83C1493.96 108.095 1494.1 108.413 1494.1 108.784C1494.1 109.034 1494.04 109.263 1493.91 109.472C1493.78 109.676 1493.62 109.841 1493.41 109.966C1493.21 110.087 1492.98 110.148 1492.74 110.148Z" fill="white"/>
<path d="M1103.05 102.463C1102.23 102.463 1101.55 103.134 1101.55 103.963C1101.55 104.791 1102.23 105.463 1103.05 105.463V102.463ZM1193.32 105.024C1193.9 104.438 1193.9 103.488 1193.32 102.902L1183.77 93.3563C1183.18 92.7705 1182.23 92.7705 1181.65 93.3563C1181.06 93.9421 1181.06 94.8918 1181.65 95.4776L1190.13 103.963L1181.65 112.448C1181.06 113.034 1181.06 113.984 1181.65 114.569C1182.23 115.155 1183.18 115.155 1183.77 114.569L1193.32 105.024ZM1103.05 105.463H1192.26V102.463H1103.05V105.463Z" fill="#B3B3B3"/>
</g>
<defs>
<clipPath id="clip0_1750_1814">
<rect width="1534" height="245" fill="white"/>
</clipPath>
</defs>
</svg>
