<svg width="128" height="128" viewBox="0 0 128 128" fill="none" xmlns="http://www.w3.org/2000/svg">
<rect width="128" height="128" rx="32" fill="black"/>
<rect x="22.9666" y="21.8667" width="52.6667" height="24" rx="12" fill="white"/>
<rect x="30.9666" y="48.5333" width="74" height="24" rx="12" fill="white"/>
<path d="M42.658 60.6597L44.1755 58.5269H45.7283L43.5017 61.6499L45.7986 64.8667H44.2517L42.6697 62.6519L41.0935 64.8667H39.5408L41.8376 61.6499L39.6169 58.5269H41.158L42.658 60.6597ZM47.4041 58.5269H50.7673V63.7065H52.6306V64.8667H47.4041V63.7065H49.3552V59.6929H47.4041V58.5269ZM49.2263 56.8862C49.2263 56.7729 49.2459 56.6694 49.2849 56.5757C49.324 56.478 49.3806 56.394 49.4548 56.3237C49.5251 56.2573 49.6091 56.2065 49.7068 56.1714C49.8084 56.1323 49.9216 56.1128 50.0466 56.1128C50.2576 56.1128 50.4275 56.1675 50.5564 56.2769C50.6892 56.3823 50.7654 56.519 50.7849 56.687C50.8123 56.8589 50.783 57.0093 50.697 57.1382C50.6111 57.2632 50.4861 57.3472 50.322 57.3901C50.24 57.4644 50.1423 57.5132 50.0291 57.5366C49.9158 57.5601 49.7908 57.5503 49.6541 57.5073C49.5134 57.4644 49.406 57.3882 49.3318 57.2788C49.2615 57.1655 49.2263 57.0347 49.2263 56.8862ZM54.2888 64.8667V58.5269H55.5544L55.6423 59.4292C55.7283 59.3081 55.822 59.1968 55.9236 59.0952C56.0291 58.9897 56.1404 58.896 56.2576 58.814C56.4451 58.6851 56.6501 58.5854 56.8728 58.5151C57.0955 58.4448 57.3298 58.4097 57.5759 58.4097C57.9001 58.4097 58.197 58.4565 58.4666 58.5503C58.7361 58.644 58.9666 58.7925 59.158 58.9956C59.3494 59.1987 59.4978 59.4585 59.6033 59.7749C59.7087 60.0874 59.7615 60.4663 59.7615 60.9116V64.8667H58.3611V60.9351C58.3611 60.6733 58.3318 60.4546 58.2732 60.2788C58.2146 60.103 58.1287 59.9624 58.0154 59.8569C57.9021 59.7515 57.7654 59.6772 57.6052 59.6343C57.4451 59.5874 57.2615 59.564 57.0544 59.564C56.8826 59.564 56.7224 59.5874 56.574 59.6343C56.4255 59.6772 56.2908 59.7397 56.1697 59.8218C56.0759 59.8843 55.988 59.9604 55.906 60.0503C55.824 60.1401 55.7517 60.2378 55.6892 60.3433V64.8667H54.2888ZM71.4626 63.8589C71.6384 63.8589 71.8064 63.8335 71.9666 63.7827C72.1306 63.728 72.2751 63.6519 72.4001 63.5542C72.5212 63.4565 72.6169 63.3413 72.6873 63.2085C72.7615 63.0757 72.7986 62.9292 72.7986 62.769H74.1169C74.1209 63.0776 74.0505 63.3687 73.906 63.6421C73.7654 63.9116 73.574 64.144 73.3318 64.3394C73.0857 64.5425 72.8025 64.7026 72.4822 64.8198C72.1658 64.9331 71.8318 64.9897 71.4802 64.9897C70.9919 64.9897 70.5642 64.9058 70.197 64.7378C69.8337 64.5659 69.531 64.3354 69.2888 64.0464C69.0427 63.7573 68.8572 63.4214 68.7322 63.0386C68.6072 62.6519 68.5447 62.2397 68.5447 61.8022V61.5972C68.5447 61.1636 68.6052 60.7534 68.7263 60.3667C68.8513 59.98 69.0369 59.6421 69.283 59.353C69.5291 59.064 69.8337 58.8354 70.197 58.6675C70.5642 58.4956 70.99 58.4097 71.4744 58.4097C71.8572 58.4097 72.2107 58.4683 72.5349 58.5854C72.863 58.7026 73.1443 58.8667 73.3787 59.0776C73.613 59.2886 73.7947 59.5405 73.9236 59.8335C74.0564 60.1265 74.1209 60.4487 74.1169 60.8003H72.7986C72.7986 60.6284 72.7654 60.4663 72.699 60.314C72.6365 60.1616 72.5466 60.0288 72.4294 59.9155C72.3084 59.8022 72.1638 59.7124 71.9959 59.646C71.8318 59.5796 71.6541 59.5464 71.4626 59.5464C71.1697 59.5464 70.9255 59.6069 70.7302 59.728C70.5388 59.8452 70.3865 59.9995 70.2732 60.1909C70.1521 60.3823 70.0662 60.6011 70.0154 60.8472C69.9685 61.0933 69.9451 61.3433 69.9451 61.5972V61.8022C69.9451 62.0601 69.9685 62.314 70.0154 62.564C70.0662 62.8101 70.1501 63.0269 70.2673 63.2144C70.3806 63.4097 70.5349 63.5659 70.7302 63.6831C70.9255 63.8003 71.1697 63.8589 71.4626 63.8589ZM77.3103 59.4292C77.3923 59.3042 77.4841 59.189 77.5857 59.0835C77.6873 58.978 77.7947 58.8862 77.908 58.8081C78.0837 58.6792 78.2771 58.5815 78.488 58.5151C78.7029 58.4448 78.9294 58.4097 79.1677 58.4097C79.4998 58.4097 79.8025 58.4585 80.0759 58.5562C80.3533 58.6538 80.5896 58.8062 80.7849 59.0132C80.9802 59.2202 81.1306 59.4858 81.2361 59.8101C81.3455 60.1304 81.4002 60.5151 81.4002 60.9644V64.8667H79.9998V60.9526C79.9998 60.7183 79.9705 60.5132 79.9119 60.3374C79.8572 60.1616 79.7752 60.019 79.6658 59.9097C79.5525 59.7925 79.4138 59.7065 79.2498 59.6519C79.0896 59.5933 78.9041 59.564 78.6931 59.564C78.5291 59.564 78.3728 59.5835 78.2244 59.6226C78.0798 59.6616 77.947 59.7183 77.8259 59.7925C77.7244 59.8511 77.6287 59.9214 77.5388 60.0034C77.4529 60.0854 77.3767 60.1772 77.3103 60.2788V64.8667H75.9099V55.8667H77.3103V59.4292ZM87.1658 64.8667C87.1228 64.7886 87.0877 64.6948 87.0603 64.5854C87.0369 64.4722 87.0154 64.355 86.9959 64.2339C86.8982 64.3354 86.7869 64.4331 86.6619 64.5269C86.5408 64.6167 86.4041 64.6948 86.2517 64.7612C86.0994 64.8315 85.9353 64.8862 85.7595 64.9253C85.5837 64.9644 85.3943 64.9839 85.1912 64.9839C84.863 64.9839 84.5623 64.937 84.2888 64.8433C84.0193 64.7456 83.7888 64.6128 83.5974 64.4448C83.4021 64.2808 83.2498 64.0835 83.1404 63.853C83.0349 63.6187 82.9822 63.3667 82.9822 63.0972C82.9822 62.7495 83.0505 62.4429 83.1873 62.1772C83.3279 61.9077 83.531 61.6851 83.7966 61.5093C84.0427 61.3452 84.3455 61.2202 84.7048 61.1343C85.0681 61.0483 85.4783 61.0054 85.9353 61.0054H86.9548V60.5776C86.9548 60.4136 86.9255 60.2651 86.8669 60.1323C86.8123 59.9995 86.7322 59.8843 86.6267 59.7866C86.5134 59.689 86.3748 59.6147 86.2107 59.564C86.0505 59.5093 85.865 59.4819 85.6541 59.4819C85.4627 59.4819 85.2947 59.5054 85.1502 59.5522C85.0095 59.5991 84.8923 59.6636 84.7986 59.7456C84.7048 59.8198 84.6345 59.9116 84.5877 60.021C84.5447 60.1265 84.5232 60.2397 84.5232 60.3608H83.1169C83.1209 60.1069 83.1814 59.8628 83.2986 59.6284C83.4158 59.394 83.5877 59.187 83.8142 59.0073C84.033 58.8237 84.3025 58.6792 84.6228 58.5737C84.947 58.4644 85.3162 58.4097 85.7302 58.4097C86.1013 58.4097 86.447 58.4565 86.7673 58.5503C87.0916 58.6401 87.3709 58.7749 87.6052 58.9546C87.8396 59.1343 88.0232 59.3628 88.156 59.6401C88.2888 59.9136 88.3552 60.23 88.3552 60.5894V63.4077C88.3552 63.6929 88.3748 63.9507 88.4138 64.1812C88.4568 64.4077 88.5173 64.603 88.5955 64.7671V64.8667H87.1658ZM85.4607 63.8589C85.6443 63.8589 85.8142 63.8354 85.9705 63.7886C86.1306 63.7417 86.2752 63.6812 86.4041 63.6069C86.533 63.5327 86.6443 63.4487 86.738 63.355C86.8318 63.2612 86.9041 63.1636 86.9548 63.062V61.8901H86.0525C85.7478 61.8901 85.4841 61.9194 85.2615 61.978C85.0388 62.0327 84.8611 62.1128 84.7283 62.2183C84.6111 62.3081 84.5232 62.4155 84.4646 62.5405C84.4099 62.6655 84.3826 62.8062 84.3826 62.9624C84.3826 63.0913 84.406 63.2124 84.4529 63.3257C84.4998 63.4351 84.5681 63.5288 84.658 63.6069C84.7478 63.6851 84.8591 63.7476 84.9919 63.7944C85.1248 63.8374 85.281 63.8589 85.4607 63.8589ZM86.3572 57.6538H85.2439L83.738 56.0542H85.3259L86.3572 57.6538ZM90.0662 61.6382C90.0662 61.1772 90.1326 60.7515 90.2654 60.3608C90.3982 59.9663 90.5916 59.6245 90.8455 59.3354C91.0955 59.0464 91.4021 58.8198 91.7654 58.6558C92.1287 58.4917 92.5427 58.4097 93.0076 58.4097C93.4724 58.4097 93.8865 58.4917 94.2498 58.6558C94.6169 58.8198 94.9275 59.0464 95.1814 59.3354C95.4314 59.6245 95.6228 59.9663 95.7556 60.3608C95.8884 60.7515 95.9548 61.1772 95.9548 61.6382V61.7612C95.9548 62.2261 95.8884 62.6538 95.7556 63.0444C95.6228 63.4351 95.4314 63.7749 95.1814 64.064C94.9314 64.353 94.6228 64.5796 94.2556 64.7437C93.8923 64.9077 93.4802 64.9897 93.0193 64.9897C92.5544 64.9897 92.1384 64.9077 91.7712 64.7437C91.4041 64.5796 91.0955 64.353 90.8455 64.064C90.5916 63.7749 90.3982 63.4351 90.2654 63.0444C90.1326 62.6538 90.0662 62.2261 90.0662 61.7612V61.6382ZM91.4666 61.7612C91.4666 62.0464 91.4959 62.3159 91.5544 62.5698C91.6169 62.8237 91.7127 63.0464 91.8416 63.2378C91.9666 63.4292 92.1267 63.5815 92.322 63.6948C92.5173 63.8042 92.7498 63.8589 93.0193 63.8589C93.281 63.8589 93.5095 63.8042 93.7048 63.6948C93.9002 63.5815 94.0603 63.4292 94.1853 63.2378C94.3103 63.0464 94.4021 62.8237 94.4607 62.5698C94.5232 62.3159 94.5544 62.0464 94.5544 61.7612V61.6382C94.5544 61.3608 94.5232 61.0952 94.4607 60.8413C94.3982 60.5874 94.3064 60.3647 94.1853 60.1733C94.0564 59.9819 93.8943 59.8296 93.699 59.7163C93.5076 59.603 93.2771 59.5464 93.0076 59.5464C92.7419 59.5464 92.5115 59.603 92.3162 59.7163C92.1248 59.8296 91.9666 59.9819 91.8416 60.1733C91.7127 60.3647 91.6169 60.5874 91.5544 60.8413C91.4959 61.0952 91.4666 61.3608 91.4666 61.6382V61.7612Z" fill="black"/>
<rect x="22.9666" y="75.2001" width="72" height="24" rx="12" fill="white"/>
<path d="M41.2192 83.2721H42.6379V90.4507H41.2192V83.2721ZM42.2326 86.0987H43.9499V87.2614H42.2326V86.0987ZM36.2699 91.8481H42.9899V92.9787H36.2699V91.8481ZM36.2699 89.7041H37.6886V92.3494H36.2699V89.7041ZM37.6139 83.9014C39.1286 83.9014 40.3019 84.9574 40.3019 86.4187C40.3019 87.8694 39.1286 88.9254 37.6139 88.9254C36.0992 88.9254 34.9259 87.8694 34.9259 86.4187C34.9259 84.9574 36.0992 83.9014 37.6139 83.9014ZM37.6139 85.1387C36.8886 85.1387 36.3126 85.6081 36.3126 86.4187C36.3126 87.2187 36.8886 87.6881 37.6139 87.6881C38.3499 87.6881 38.9152 87.2187 38.9152 86.4187C38.9152 85.6081 38.3499 85.1387 37.6139 85.1387ZM45.2504 83.7734H46.6584V87.9227H45.2504V83.7734ZM45.2504 87.6347H46.0504C47.7571 87.6347 48.9411 87.5921 50.2637 87.3361L50.4237 88.4667C49.0584 88.7334 47.8211 88.7867 46.0504 88.7867H45.2504V87.6347ZM51.5224 83.2721H52.9411V89.1921H51.5224V83.2721ZM49.1757 84.1467H51.8744V85.2241H49.1757V84.1467ZM49.1757 85.8534H51.8744V86.9307H49.1757V85.8534ZM49.5917 89.3201C51.6824 89.3201 52.9731 90.0347 52.9731 91.2401C52.9731 92.4561 51.6824 93.1601 49.5917 93.1601C47.5011 93.1601 46.2104 92.4561 46.2104 91.2401C46.2104 90.0347 47.5011 89.3201 49.5917 89.3201ZM49.5917 90.4187C48.3117 90.4187 47.6291 90.6854 47.6291 91.2401C47.6291 91.7947 48.3117 92.0614 49.5917 92.0614C50.8824 92.0614 51.5651 91.7947 51.5651 91.2401C51.5651 90.6854 50.8824 90.4187 49.5917 90.4187ZM60.8229 83.2721H62.2309V93.1494H60.8229V83.2721ZM61.9109 87.1227H63.6602V88.3067H61.9109V87.1227ZM54.4442 84.7334H60.1936V85.8641H54.4442V84.7334ZM57.3349 86.4187C58.7749 86.4187 59.8416 87.4001 59.8416 88.7761C59.8416 90.1521 58.7749 91.1334 57.3349 91.1334C55.8949 91.1334 54.8282 90.1521 54.8282 88.7761C54.8282 87.4001 55.8949 86.4187 57.3349 86.4187ZM57.3349 87.5707C56.6629 87.5707 56.1829 88.0187 56.1829 88.7761C56.1829 89.5334 56.6629 89.9814 57.3349 89.9814C58.0069 89.9814 58.4869 89.5334 58.4869 88.7761C58.4869 88.0187 58.0069 87.5707 57.3349 87.5707ZM56.6202 83.4321H58.0389V85.1601H56.6202V83.4321ZM68.1927 86.5894H69.8247V87.7414H68.1927V86.5894ZM66.0807 84.1254H67.1687V85.7894C67.1687 88.0294 66.5501 90.2161 64.9714 91.1867L64.1181 90.1201C65.5687 89.2241 66.0807 87.4641 66.0807 85.7894V84.1254ZM66.3901 84.1254H67.4567V85.7254C67.4567 87.3361 67.8727 88.9787 69.2167 89.8534L68.4487 90.9627C66.8807 89.9921 66.3901 87.8587 66.3901 85.7254V84.1254ZM71.4354 83.2721H72.7901V93.1494H71.4354V83.2721ZM69.4301 83.4214H70.7527V92.7014H69.4301V83.4214ZM76.0852 88.2854H77.4932V91.0587H76.0852V88.2854ZM79.6692 88.2854H81.0879V91.0587H79.6692V88.2854ZM74.1226 90.8561H83.0612V92.0081H74.1226V90.8561ZM78.5812 83.7521C80.7039 83.7521 82.2719 84.7974 82.2719 86.4081C82.2719 88.0187 80.7039 89.0534 78.5812 89.0534C76.4479 89.0534 74.8906 88.0187 74.8906 86.4081C74.8906 84.7974 76.4479 83.7521 78.5812 83.7521ZM78.5812 84.8614C77.2052 84.8614 76.2879 85.4267 76.2879 86.4081C76.2879 87.3787 77.2052 87.9547 78.5812 87.9547C79.9572 87.9547 80.8746 87.3787 80.8746 86.4081C80.8746 85.4267 79.9572 84.8614 78.5812 84.8614Z" fill="black"/>
<path d="M33.7576 32.7626C33.8396 32.6376 33.9314 32.5223 34.033 32.4169C34.1345 32.3114 34.2419 32.2196 34.3552 32.1415C34.531 32.0126 34.7244 31.9149 34.9353 31.8485C35.1501 31.7782 35.3767 31.743 35.615 31.743C35.947 31.743 36.2498 31.7919 36.5232 31.8895C36.8005 31.9872 37.0369 32.1395 37.2322 32.3466C37.4275 32.5536 37.5779 32.8192 37.6833 33.1434C37.7927 33.4637 37.8474 33.8485 37.8474 34.2977V38.2001H36.447V34.286C36.447 34.0516 36.4177 33.8466 36.3591 33.6708C36.3044 33.495 36.2224 33.3524 36.113 33.243C35.9998 33.1259 35.8611 33.0399 35.697 32.9852C35.5369 32.9266 35.3513 32.8973 35.1404 32.8973C34.9763 32.8973 34.8201 32.9169 34.6716 32.9559C34.5271 32.995 34.3943 33.0516 34.2732 33.1259C34.1716 33.1844 34.0759 33.2548 33.9861 33.3368C33.9001 33.4188 33.824 33.5106 33.7576 33.6122V38.2001H32.3572V29.2001H33.7576V32.7626ZM42.5232 38.3173C42.0544 38.3173 41.6248 38.2391 41.2341 38.0829C40.8474 37.9266 40.5154 37.7098 40.238 37.4325C39.9607 37.1591 39.7458 36.8368 39.5935 36.4657C39.4451 36.0907 39.3708 35.6864 39.3708 35.2528V35.0126C39.3708 34.5165 39.449 34.0673 39.6052 33.6649C39.7615 33.2626 39.9763 32.9188 40.2498 32.6337C40.5232 32.3485 40.8396 32.1298 41.199 31.9774C41.5623 31.8212 41.949 31.743 42.3591 31.743C42.8162 31.743 43.2205 31.8212 43.572 31.9774C43.9236 32.1298 44.2185 32.3427 44.4568 32.6161C44.6951 32.8934 44.8748 33.2235 44.9958 33.6063C45.1169 33.9891 45.1775 34.4071 45.1775 34.8602V35.4637H40.783V35.493C40.8259 35.7704 40.8923 36.0028 40.9822 36.1903C41.072 36.3778 41.1951 36.5458 41.3513 36.6942C41.5076 36.8505 41.6912 36.9716 41.9021 37.0575C42.1169 37.1434 42.3513 37.1864 42.6052 37.1864C42.9529 37.1864 43.2771 37.12 43.5779 36.9872C43.8787 36.8505 44.1267 36.6571 44.322 36.4071L45.072 37.1337C44.8611 37.4384 44.5369 37.7118 44.0994 37.954C43.6658 38.1962 43.1404 38.3173 42.5232 38.3173ZM42.3533 32.8798C42.1541 32.8798 41.9685 32.9169 41.7966 32.9911C41.6287 33.0614 41.4783 33.163 41.3455 33.2958C41.2126 33.4325 41.1013 33.5966 41.0115 33.788C40.9216 33.9794 40.8552 34.1962 40.8123 34.4384H43.7947V34.3446C43.7947 34.161 43.7615 33.9794 43.6951 33.7997C43.6287 33.6161 43.5349 33.4559 43.4138 33.3192C43.2966 33.1864 43.1482 33.0809 42.9685 33.0028C42.7927 32.9208 42.5876 32.8798 42.3533 32.8798ZM47.0408 29.2001H50.4568V37.0399H52.3787V38.2001H47.0408V37.0399H49.0447V30.3661H47.0408V29.2001ZM54.2478 29.2001H57.6638V37.0399H59.5857V38.2001H54.2478V37.0399H56.2517V30.3661H54.2478V29.2001ZM60.9275 34.9716C60.9275 34.5106 60.9939 34.0848 61.1267 33.6942C61.2595 33.2997 61.4529 32.9579 61.7068 32.6688C61.9568 32.3798 62.2634 32.1532 62.6267 31.9891C62.99 31.8251 63.4041 31.743 63.8689 31.743C64.3337 31.743 64.7478 31.8251 65.1111 31.9891C65.4783 32.1532 65.7888 32.3798 66.0427 32.6688C66.2927 32.9579 66.4841 33.2997 66.6169 33.6942C66.7498 34.0848 66.8162 34.5106 66.8162 34.9716V35.0946C66.8162 35.5594 66.7498 35.9872 66.6169 36.3778C66.4841 36.7684 66.2927 37.1083 66.0427 37.3973C65.7927 37.6864 65.4841 37.913 65.1169 38.077C64.7537 38.2411 64.3416 38.3231 63.8806 38.3231C63.4158 38.3231 62.9998 38.2411 62.6326 38.077C62.2654 37.913 61.9568 37.6864 61.7068 37.3973C61.4529 37.1083 61.2595 36.7684 61.1267 36.3778C60.9939 35.9872 60.9275 35.5594 60.9275 35.0946V34.9716ZM62.3279 35.0946C62.3279 35.3798 62.3572 35.6493 62.4158 35.9032C62.4783 36.1571 62.574 36.3798 62.7029 36.5712C62.8279 36.7626 62.988 36.9149 63.1833 37.0282C63.3787 37.1376 63.6111 37.1923 63.8806 37.1923C64.1423 37.1923 64.3708 37.1376 64.5662 37.0282C64.7615 36.9149 64.9216 36.7626 65.0466 36.5712C65.1716 36.3798 65.2634 36.1571 65.322 35.9032C65.3845 35.6493 65.4158 35.3798 65.4158 35.0946V34.9716C65.4158 34.6942 65.3845 34.4286 65.322 34.1747C65.2595 33.9208 65.1677 33.6981 65.0466 33.5067C64.9177 33.3153 64.7556 33.163 64.5603 33.0497C64.3689 32.9364 64.1384 32.8798 63.8689 32.8798C63.6033 32.8798 63.3728 32.9364 63.1775 33.0497C62.9861 33.163 62.8279 33.3153 62.7029 33.5067C62.574 33.6981 62.4783 33.9208 62.4158 34.1747C62.3572 34.4286 62.3279 34.6942 62.3279 34.9716V35.0946Z" fill="black"/>
<path d="M28.9666 50.0493V41.7138C28.9666 41.0958 29.5214 40.6258 30.131 40.7274L35.3955 41.6048C36.1227 41.726 36.4732 42.5656 36.048 43.1679L30.7835 50.626C30.2209 51.4231 28.9666 51.025 28.9666 50.0493Z" fill="white"/>
<path d="M97.4083 78.3843L90.7357 71.3604C90.2266 70.8246 90.4547 69.9407 91.1595 69.7181L97.8322 67.611C98.4767 67.4074 99.1333 67.8886 99.1333 68.5645V77.6955C99.1333 78.5988 98.0305 79.0392 97.4083 78.3843Z" fill="white"/>
<path d="M30.6737 104.493L38.2594 96.9072C38.8894 96.2772 38.4432 95.2001 37.5523 95.2001H29.9666C29.4143 95.2001 28.9666 95.6478 28.9666 96.2001V103.786C28.9666 104.677 30.0437 105.123 30.6737 104.493Z" fill="white"/>
</svg>
