<svg width="72" height="72" viewBox="0 0 72 72" fill="none" xmlns="http://www.w3.org/2000/svg">
<g clip-path="url(#clip0_1846_1860)">
<mask id="mask0_1846_1860" style="mask-type:alpha" maskUnits="userSpaceOnUse" x="0" y="0" width="72" height="72">
<path d="M72 49.5792C72 50.4351 72 51.2911 71.995 52.1483C71.9912 52.869 71.9824 53.5897 71.9623 54.3105C71.9197 55.8797 71.8256 57.4651 71.5432 59.0169C71.2571 60.5936 70.7903 62.0611 70.0512 63.4939C69.3272 64.9006 68.3811 66.1882 67.2517 67.3047C66.1224 68.4212 64.8186 69.3577 63.3956 70.0735C61.9475 70.8029 60.4643 71.2656 58.8694 71.5485C57.2984 71.8276 55.6959 71.9206 54.1073 71.9628C51.053 72 50.1872 72 49.3214 72H32.6257H22.6799C19.3521 71.9901 18.623 71.9826 17.8939 71.9628C16.3053 71.9206 14.7029 71.8276 13.1318 71.5485C11.5369 71.2656 10.0537 70.8029 8.60565 70.0735C7.18142 69.3577 5.8789 68.4212 4.74955 67.3047C3.6202 66.1882 2.67405 64.9006 1.94876 63.4939C1.21091 62.0611 0.744117 60.5936 0.45676 59.0169C0.174422 57.4651 0.0815642 55.8797 0.0388999 54.3105C0.0188225 53.5897 0.0100387 52.869 0.00627417 52.1483C0 51.2911 0 50.4351 0 49.5792V39.747V32.253V22.4208C0 21.5649 0 20.7077 0.00627417 19.853C0.0100387 19.131 0.0188225 18.4103 0.0388999 17.6895C0.0815642 16.1191 0.174422 14.5349 0.45676 12.9818C0.744117 11.4052 1.21091 9.93889 1.94876 8.50611C2.67405 7.09814 3.6202 5.8105 4.74955 4.69529C5.8789 3.5776 7.18142 2.64227 8.60565 1.9265C10.0537 1.19708 11.5369 0.734376 13.1318 0.451542C14.7029 0.17243 16.3053 0.079392 17.8939 0.037215C20.9482 0 21.814 0 22.6799 0H32.6257H48.6111L39.3743 0.0037215L49.3214 0C52.6479 0.009924 53.377 0.017367 54.1073 0.037215C55.6959 0.079392 57.2984 0.17243 58.8694 0.451542C60.4643 0.734376 61.9475 1.19708 63.3956 1.9265C64.8186 2.64227 66.1224 3.5776 67.2517 4.69529C68.3811 5.8105 69.3272 7.09814 70.0512 8.50611C70.7903 9.93889 71.2571 11.4052 71.5432 12.9818C71.8256 14.5349 71.9197 16.1191 71.9623 17.6895C71.9824 18.4103 71.9912 19.131 71.995 19.853C72 20.7077 72 21.5649 72 22.4208V32.253V39.747V49.5792Z" fill="white"/>
</mask>
<g mask="url(#mask0_1846_1860)">
<path d="M72 0H0V72H72V0Z" fill="#245393"/>
</g>
<g clip-path="url(#clip1_1846_1860)">
<path d="M56.3109 52.6696C56.3109 52.6696 56.5453 52.3565 56.4672 52.0435C56.3891 51.7304 56.0766 51.6522 55.5297 51.887C55.0609 52.1217 54.2797 52.513 54.0453 52.5913C54.0453 52.5913 52.4828 53.3739 52.0141 53.5304C51.5453 53.687 50.2172 54 49.2797 52.9826C48.3422 51.9652 48.3422 50.4 48.9672 49.1478C49.5922 49.5391 50.8422 50.4783 50.8422 50.4783C50.8422 50.4783 50.6078 50.7913 50.6859 51.1043C50.7641 51.4174 50.9984 51.4957 51.6234 51.2609C52.1703 51.0261 53.1859 50.5565 53.1859 50.5565C53.4203 50.4 54.7484 49.7739 55.1391 49.6174C55.5297 49.4609 56.9359 49.1478 57.8734 50.1652C58.8109 51.1826 58.8109 52.7478 58.1859 54C57.5609 53.5304 56.3109 52.6696 56.3109 52.6696ZM52.9516 48.913C49.8266 48.913 47.3266 46.4087 47.3266 43.2783C47.3266 40.1478 49.8266 37.6435 52.9516 37.6435H57.3266C57.4828 37.6435 57.9516 37.6435 58.5766 37.0174C59.5141 38.0348 60.2172 38.8957 60.2172 38.8957C60.2172 38.8957 59.3578 39.9913 58.2641 40.0696H57.5609C58.2641 41.0087 58.5766 42.1043 58.5766 43.2783C58.5766 46.3304 56.1547 48.913 53.1078 48.913H52.9516ZM49.7484 43.2783C49.7484 45.0783 51.1547 46.487 52.9516 46.487C54.7484 46.487 56.1547 45.0783 56.1547 43.2783C56.1547 41.4783 54.7484 40.0696 52.9516 40.0696C51.2328 40.0696 49.7484 41.4783 49.7484 43.2783ZM23.9672 43.0435C23.9672 39.913 26.4672 37.4087 29.5922 37.4087C32.7172 37.4087 35.2172 39.913 35.2172 43.0435C35.2172 46.1739 32.7172 48.6783 29.5922 48.6783C26.4672 48.6 23.9672 46.0957 23.9672 43.0435ZM26.3109 43.0435C26.3109 44.8435 27.7953 46.2522 29.5141 46.2522C31.2328 46.2522 32.7172 44.7652 32.7172 43.0435C32.7172 41.2435 31.2328 39.8348 29.5141 39.8348C27.7953 39.7565 26.3891 41.2435 26.3109 43.0435ZM43.3422 48.6783V42.1043C43.3422 40.8522 42.4047 39.8348 41.2328 39.8348C40.0609 39.8348 39.1234 40.8522 39.1234 42.1043V48.6783H36.7797V42.1043C36.7797 39.5217 38.8109 37.4087 41.2328 37.4087C43.7328 37.4087 45.6859 39.5217 45.6859 42.1043V48.6783H43.3422ZM10.9984 43.0435C10.9984 39.913 13.4984 37.4087 16.6234 37.4087C17.7953 37.4087 18.8891 37.8 19.8266 38.4261V32.5565H22.2484V43.0435C22.2484 46.1739 19.7484 48.6783 16.6234 48.6783C13.4984 48.6783 10.9984 46.0957 10.9984 43.0435ZM13.4203 43.0435C13.4203 44.8435 14.9047 46.2522 16.6234 46.2522C18.3422 46.2522 19.8266 44.7652 19.8266 43.0435C19.8266 41.2435 18.3422 39.8348 16.6234 39.8348C14.8266 39.7565 13.4203 41.2435 13.4203 43.0435ZM32.2484 37.0957V35.5304C32.2484 35.5304 35.1391 35.0609 36.8578 37.3304C36.1547 38.113 35.2172 39.2087 35.2172 39.2087C35.2172 39.2087 34.2016 37.3304 32.2484 37.0957ZM58.5766 37.0174C58.4203 35.4522 57.0141 34.8261 55.3734 34.8261H53.1859H53.1078H52.9516C49.8266 34.8261 47.3266 32.3217 47.3266 29.1913C47.3266 26.0609 49.8266 23.5565 52.9516 23.5565H57.3266C57.4828 23.5565 57.9516 23.5565 58.5766 22.9304C59.5141 24.0261 60.2172 24.8087 60.2172 24.8087C60.2172 24.8087 59.3578 25.9043 58.2641 25.9826H57.5609C58.2641 26.9217 58.5766 28.0174 58.5766 29.1913C58.5766 30.4435 58.1078 31.6957 57.3266 32.713C59.3578 33.3391 60.8422 34.8261 60.9984 37.0174H58.5766ZM49.7484 29.1913C49.7484 30.9913 51.1547 32.4 52.9516 32.4C54.7484 32.4 56.1547 30.9913 56.1547 29.1913C56.1547 27.3913 54.7484 25.9826 52.9516 25.9826C51.2328 25.9826 49.7484 27.3913 49.7484 29.1913ZM15.9984 34.9826C12.8734 34.6696 10.6859 31.8522 10.9984 28.7217C11.3109 25.8261 13.7328 23.713 16.6234 23.6348C17.7953 23.6348 18.8891 24.0261 19.8266 24.6522V18.0783H22.2484V30.7565H19.8266V29.3478C19.8266 27.5478 18.3422 26.1391 16.6234 26.1391C14.8266 26.1391 13.3422 27.5478 13.3422 29.3478C13.3422 31.1478 14.7484 32.6348 16.5453 32.6348C17.0922 32.6348 17.6391 32.5565 18.1859 32.4V34.7478C17.6391 34.9043 17.0922 35.0609 16.5453 34.9826C16.4672 34.9826 16.2328 34.9826 15.9984 34.9826ZM43.3422 34.9826V28.4087C43.3422 27.1565 42.4047 26.1391 41.2328 26.1391C40.0609 26.1391 39.1234 27.1565 39.1234 28.4087V34.9826H36.7797V28.4087C36.7797 25.8261 38.8109 23.713 41.2328 23.713C43.7328 23.713 45.6859 25.8261 45.6859 28.4087V34.9826H43.3422ZM23.8891 29.2696C23.8891 26.1391 26.4672 23.6348 29.5141 23.6348C32.6391 23.6348 35.1391 26.2174 35.1391 29.2696C35.1391 32.4 32.6391 34.9043 29.5141 34.9043C26.3891 34.9826 23.8891 32.4 23.8891 29.2696ZM26.2328 29.2696C26.2328 31.0696 27.7172 32.4783 29.4359 32.4783C31.1547 32.4783 32.6391 30.9913 32.6391 29.2696C32.6391 27.5478 31.1547 26.0609 29.4359 26.0609C27.7172 26.0609 26.3109 27.5478 26.2328 29.2696ZM32.2484 23.2435V21.6783C32.2484 21.6783 35.1391 21.2087 36.8578 23.4783C36.1547 24.2609 35.2172 25.3565 35.2172 25.3565C35.2172 25.3565 34.2016 23.4783 32.2484 23.2435Z" fill="white"/>
</g>
</g>
<defs>
<clipPath id="clip0_1846_1860">
<rect width="72" height="72" fill="white"/>
</clipPath>
<clipPath id="clip1_1846_1860">
<rect width="50" height="36" fill="white" transform="translate(11 18)"/>
</clipPath>
</defs>
</svg>
