<svg xmlns="http://www.w3.org/2000/svg" width="463.015" height="410.075" viewBox="0 0 463.015 410.075">
  <g id="Group_2211" data-name="Group 2211" transform="translate(-159.694 -205.079)">
    <g id="Group_1472" data-name="Group 1472">
      <rect id="Rectangle_622" data-name="Rectangle 622" width="204.576" height="204.576" rx="44.955" transform="translate(285.653 230.184)" fill="#01b384"/>
      <g id="Group_1467" data-name="Group 1467">
        <path id="Path_1634" data-name="Path 1634" d="M387.941,303.378a41.964,41.964,0,0,0-41.917,41.915c0,22.723,19.961,41.919,43.589,41.919a61.644,61.644,0,0,0,23.564-4.445,9.3,9.3,0,1,0-6.89-17.284,42.506,42.506,0,0,1-16.674,3.12c-13.308,0-24.981-10.893-24.981-23.31a23.309,23.309,0,0,1,44.679-9.3H391.472a9.3,9.3,0,1,0,0,18.609h29.082a9.305,9.305,0,0,0,9.3-9.3A41.964,41.964,0,0,0,387.941,303.378Z" fill="#fff"/>
        <path id="Path_1635" data-name="Path 1635" d="M391.683,273.331a26.684,26.684,0,0,0-7.776,17.138,3.41,3.41,0,0,0,3.6,3.6,26.751,26.751,0,0,0,24.914-24.914,3.409,3.409,0,0,0-3.6-3.6A26.68,26.68,0,0,0,391.683,273.331Z" fill="#fff"/>
      </g>
      <g id="Group_1471" data-name="Group 1471">
        <rect id="Rectangle_623" data-name="Rectangle 623" width="204.576" height="204.576" rx="102.288" transform="translate(285.653 230.184)" fill="none" stroke="#ccc" stroke-miterlimit="10" stroke-width="1.956" opacity="0.5"/>
        <g id="Group_1470" data-name="Group 1470">
          <g id="Group_1469" data-name="Group 1469" opacity="0.5">
            <g id="Group_1468" data-name="Group 1468">
              <line id="Line_468" data-name="Line 468" x1="204.576" y2="204.576" transform="translate(285.653 230.184)" fill="none" stroke="#ccc" stroke-miterlimit="10" stroke-width="1.956"/>
              <line id="Line_469" data-name="Line 469" x2="204.576" y2="204.576" transform="translate(285.653 230.184)" fill="none" stroke="#ccc" stroke-miterlimit="10" stroke-width="1.956"/>
              <line id="Line_470" data-name="Line 470" y2="204.576" transform="translate(477.043 230.184)" fill="none" stroke="#ccc" stroke-miterlimit="10" stroke-width="1.956"/>
              <line id="Line_471" data-name="Line 471" y2="204.576" transform="translate(426.698 230.184)" fill="none" stroke="#ccc" stroke-miterlimit="10" stroke-width="1.956"/>
              <line id="Line_472" data-name="Line 472" y2="204.576" transform="translate(387.941 230.184)" fill="none" stroke="#ccc" stroke-miterlimit="10" stroke-width="1.956"/>
              <line id="Line_473" data-name="Line 473" y2="204.576" transform="translate(349.183 230.184)" fill="none" stroke="#ccc" stroke-miterlimit="10" stroke-width="1.956"/>
              <line id="Line_474" data-name="Line 474" y2="204.576" transform="translate(298.839 230.184)" fill="none" stroke="#ccc" stroke-miterlimit="10" stroke-width="1.956"/>
              <line id="Line_475" data-name="Line 475" x2="204.576" transform="translate(285.653 243.369)" fill="none" stroke="#ccc" stroke-miterlimit="10" stroke-width="1.956"/>
              <line id="Line_476" data-name="Line 476" x2="204.576" transform="translate(285.653 293.714)" fill="none" stroke="#ccc" stroke-miterlimit="10" stroke-width="1.956"/>
              <line id="Line_477" data-name="Line 477" x2="204.576" transform="translate(285.653 332.472)" fill="none" stroke="#ccc" stroke-miterlimit="10" stroke-width="1.956"/>
              <line id="Line_478" data-name="Line 478" x2="204.576" transform="translate(285.653 371.229)" fill="none" stroke="#ccc" stroke-miterlimit="10" stroke-width="1.956"/>
              <line id="Line_479" data-name="Line 479" x2="204.576" transform="translate(285.653 421.574)" fill="none" stroke="#ccc" stroke-miterlimit="10" stroke-width="1.956"/>
              <circle id="Ellipse_106" data-name="Ellipse 106" cx="38.757" cy="38.757" r="38.757" transform="translate(337.064 352.864) rotate(-66.842)" fill="none" stroke="#ccc" stroke-miterlimit="10" stroke-width="1.956"/>
              <circle id="Ellipse_107" data-name="Ellipse 107" cx="54.74" cy="54.74" r="54.74" transform="translate(315.996 361.053) rotate(-66.666)" fill="none" stroke="#ccc" stroke-miterlimit="10" stroke-width="1.956"/>
              <circle id="Ellipse_108" data-name="Ellipse 108" cx="89.102" cy="89.102" r="89.102" transform="translate(261.931 332.472) rotate(-45)" fill="none" stroke="#ccc" stroke-miterlimit="10" stroke-width="1.956"/>
            </g>
          </g>
        </g>
      </g>
    </g>
    <g id="Group_1473" data-name="Group 1473">
      <path id="Path_1636" data-name="Path 1636" d="M339.311,486.227a22.387,22.387,0,0,0-22.363,22.362c0,12.123,10.649,22.364,23.255,22.364a32.9,32.9,0,0,0,12.572-2.371,4.964,4.964,0,1,0-3.676-9.222,22.684,22.684,0,0,1-8.9,1.665c-7.1,0-13.327-5.812-13.327-12.436a12.435,12.435,0,0,1,23.837-4.964H341.2a4.964,4.964,0,1,0,0,9.928H356.71a4.964,4.964,0,0,0,4.964-4.964A22.387,22.387,0,0,0,339.311,486.227Z" fill="#00b384"/>
      <path id="Path_1637" data-name="Path 1637" d="M387.941,486.227a19.141,19.141,0,0,0-9.9,2.763,4.951,4.951,0,0,0-9.392,2.2v34.8a4.964,4.964,0,0,0,9.928,0V505.514a9.36,9.36,0,1,1,18.72,0v20.475a4.964,4.964,0,0,0,9.928,0V505.514A19.31,19.31,0,0,0,387.941,486.227Z" fill="#00b384"/>
      <path id="Path_1638" data-name="Path 1638" d="M290.693,486.227a19.222,19.222,0,0,0-14.324,6.416,19.161,19.161,0,0,0-24.22-3.653,4.951,4.951,0,0,0-9.392,2.2v34.8a4.964,4.964,0,0,0,9.928,0V505.514a9.36,9.36,0,1,1,18.72,0v20.475a4.964,4.964,0,0,0,9.928,0V505.514a9.359,9.359,0,1,1,18.719,0v20.475a4.964,4.964,0,0,0,9.928,0V505.514A19.309,19.309,0,0,0,290.693,486.227Z" fill="#00b384"/>
      <path id="Path_1639" data-name="Path 1639" d="M529.555,486.227a4.964,4.964,0,0,0-4.964,4.963v34.8a4.964,4.964,0,0,0,9.928,0v-34.8A4.964,4.964,0,0,0,529.555,486.227Z" fill="#00b384"/>
      <path id="Path_1640" data-name="Path 1640" d="M514.686,486.227a19.143,19.143,0,0,0-9.9,2.763,4.95,4.95,0,0,0-9.391,2.2v34.8a4.964,4.964,0,1,0,9.927,0V505.514a9.371,9.371,0,0,1,9.36-9.36,4.964,4.964,0,1,0,0-9.927Z" fill="#00b384"/>
      <path id="Path_1641" data-name="Path 1641" d="M448.933,486.227a4.964,4.964,0,0,0-4.964,4.963v20.475a9.359,9.359,0,1,1-18.719,0V491.19a4.964,4.964,0,0,0-9.928,0v20.475a19.247,19.247,0,0,0,29.183,16.525,4.951,4.951,0,0,0,9.392-2.2v-34.8A4.964,4.964,0,0,0,448.933,486.227Z" fill="#00b384"/>
      <path id="Path_1642" data-name="Path 1642" d="M482.107,494.6a4.964,4.964,0,1,0,0-9.928h-9.359V473.618a4.964,4.964,0,1,0-9.928,0v38.047a19.309,19.309,0,0,0,19.287,19.288,4.964,4.964,0,1,0,0-9.928,9.37,9.37,0,0,1-9.359-9.36V494.6Z" fill="#00b384"/>
      <path id="Path_1643" data-name="Path 1643" d="M341.308,470.2a14.236,14.236,0,0,0-4.149,9.144,1.82,1.82,0,0,0,1.919,1.919,14.272,14.272,0,0,0,13.292-13.292,1.819,1.819,0,0,0-1.919-1.919A14.235,14.235,0,0,0,341.308,470.2Z" fill="#00b384"/>
      <path id="Path_1644" data-name="Path 1644" d="M528.744,470.2a14.236,14.236,0,0,0-4.149,9.144,1.82,1.82,0,0,0,1.919,1.919,14.272,14.272,0,0,0,13.292-13.292,1.819,1.819,0,0,0-1.919-1.919A14.235,14.235,0,0,0,528.744,470.2Z" fill="#00b384"/>
    </g>
    <g id="Group_1475" data-name="Group 1475">
      <g id="Group_1474" data-name="Group 1474">
        <path id="Path_1645" data-name="Path 1645" d="M189.16,577.917a3.866,3.866,0,0,1,1.031,2.792v23.367a3.482,3.482,0,0,1-.945,2.577,3.728,3.728,0,0,1-4.961,0,3.44,3.44,0,0,1-.967-2.577V591.447l-4.9,9.021a5.531,5.531,0,0,1-1.547,1.954,3.509,3.509,0,0,1-3.865,0,5.508,5.508,0,0,1-1.546-1.954l-4.855-8.763v12.371a3.454,3.454,0,0,1-.966,2.555,3.452,3.452,0,0,1-5.949-2.555V580.709a3.819,3.819,0,0,1,1.053-2.792,3.792,3.792,0,0,1,4.789-.408,5.212,5.212,0,0,1,1.589,1.911l7.9,14.862,7.86-14.862q1.332-2.577,3.608-2.576A3.526,3.526,0,0,1,189.16,577.917Z" fill="#e1e9ef"/>
        <path id="Path_1646" data-name="Path 1646" d="M201.014,606.4a3.664,3.664,0,0,1-.944-2.707v-22.98a3.3,3.3,0,0,1,3.651-3.651h14.862a4.329,4.329,0,0,1,2.791.773,2.721,2.721,0,0,1,.946,2.234q0,3.091-3.737,3.092H207.758v5.756h9.965q3.738,0,3.738,3.049a2.717,2.717,0,0,1-.946,2.234,4.325,4.325,0,0,1-2.792.773h-9.965v6.272h10.825q3.735,0,3.737,3.092a2.72,2.72,0,0,1-.946,2.234,4.324,4.324,0,0,1-2.791.773H203.721A3.664,3.664,0,0,1,201.014,606.4Z" fill="#e1e9ef"/>
        <path id="Path_1647" data-name="Path 1647" d="M255.973,577.917a3.819,3.819,0,0,1,1.053,2.792v22.98a3.922,3.922,0,0,1-1.031,2.835,3.527,3.527,0,0,1-2.663,1.074,3.456,3.456,0,0,1-2.921-1.288l-13.058-16.28v13.659a4.024,4.024,0,0,1-.988,2.835A3.443,3.443,0,0,1,233.7,607.6a3.525,3.525,0,0,1-2.663-1.074,3.922,3.922,0,0,1-1.031-2.835v-22.98a3.866,3.866,0,0,1,1.031-2.792,3.524,3.524,0,0,1,2.663-1.073,3.478,3.478,0,0,1,2.878,1.288l13.058,16.236V580.709a3.892,3.892,0,0,1,1.01-2.814,3.489,3.489,0,0,1,2.641-1.051A3.594,3.594,0,0,1,255.973,577.917Z" fill="#e1e9ef"/>
        <path id="Path_1648" data-name="Path 1648" d="M270.061,604.376q-3.412-3.351-3.414-9.793V580.709a3.869,3.869,0,1,1,7.731,0v14.174a7.681,7.681,0,0,0,1.461,5.027,5.914,5.914,0,0,0,8.419,0,7.681,7.681,0,0,0,1.461-5.027V580.709a3.62,3.62,0,0,1,3.865-3.865,3.879,3.879,0,0,1,2.835,1.051,3.765,3.765,0,0,1,1.074,2.814v13.874q0,6.4-3.457,9.772t-9.988,3.372Q273.478,607.727,270.061,604.376Z" fill="#e1e9ef"/>
        <path id="Path_1649" data-name="Path 1649" d="M339.582,593.166a2.453,2.453,0,0,1,.73,1.8,2.525,2.525,0,0,1-.73,1.826,2.42,2.42,0,0,1-1.8.752h-5.411v5.369a2.489,2.489,0,0,1-.709,1.8,2.545,2.545,0,0,1-4.36-1.8v-5.369h-5.412a2.413,2.413,0,0,1-1.8-.752,2.517,2.517,0,0,1-.73-1.826,2.5,2.5,0,0,1,2.534-2.534H327.3v-5.411a2.535,2.535,0,1,1,5.069,0v5.411h5.411A2.451,2.451,0,0,1,339.582,593.166Z" fill="#e1e9ef"/>
        <path id="Path_1650" data-name="Path 1650" d="M392.307,577.917a3.815,3.815,0,0,1,1.053,2.792v22.98a3.921,3.921,0,0,1-1.03,2.835,3.527,3.527,0,0,1-2.664,1.074,3.458,3.458,0,0,1-2.921-1.288l-13.058-16.28v13.659a4.023,4.023,0,0,1-.987,2.835,3.443,3.443,0,0,1-2.663,1.074,3.527,3.527,0,0,1-2.664-1.074,3.921,3.921,0,0,1-1.03-2.835v-22.98a3.865,3.865,0,0,1,1.03-2.792,3.527,3.527,0,0,1,2.664-1.073,3.478,3.478,0,0,1,2.878,1.288l13.057,16.236V580.709a3.9,3.9,0,0,1,1.01-2.814,3.492,3.492,0,0,1,2.641-1.051A3.591,3.591,0,0,1,392.307,577.917Z" fill="#e1e9ef"/>
        <path id="Path_1651" data-name="Path 1651" d="M406.4,604.376q-3.414-3.351-3.414-9.793V580.709a3.869,3.869,0,1,1,7.731,0v14.174a7.676,7.676,0,0,0,1.461,5.027,5.913,5.913,0,0,0,8.418,0,7.676,7.676,0,0,0,1.461-5.027V580.709a3.622,3.622,0,0,1,3.866-3.865,3.879,3.879,0,0,1,2.835,1.051,3.765,3.765,0,0,1,1.073,2.814v13.874q0,6.4-3.457,9.772t-9.987,3.372Q409.812,607.727,406.4,604.376Z" fill="#e1e9ef"/>
        <path id="Path_1652" data-name="Path 1652" d="M447.374,606.5a3.718,3.718,0,0,1-1.1-2.813V583.458h-6.056a4.224,4.224,0,0,1-2.813-.794,3.029,3.029,0,0,1-.924-2.427,2.961,2.961,0,0,1,.924-2.406,4.311,4.311,0,0,1,2.813-.773h20.1a4.318,4.318,0,0,1,2.814.773,2.964,2.964,0,0,1,.924,2.406,3.032,3.032,0,0,1-.924,2.427,4.231,4.231,0,0,1-2.814.794h-6.057v20.231a3.717,3.717,0,0,1-1.094,2.813,4.519,4.519,0,0,1-5.8,0Z" fill="#e1e9ef"/>
        <path id="Path_1653" data-name="Path 1653" d="M497.135,604.505A2.845,2.845,0,0,1,496,606.8a4.218,4.218,0,0,1-4.575.451,4.249,4.249,0,0,1-1.545-1.417l-5.585-8.161a4.462,4.462,0,0,0-1.267-1.268,2.952,2.952,0,0,0-1.568-.408h-2.792v7.689a3.905,3.905,0,0,1-1.03,2.856A3.786,3.786,0,0,1,474.8,607.6a3.634,3.634,0,0,1-3.909-3.909v-22.98a3.3,3.3,0,0,1,3.651-3.651h10.781q5.5,0,8.268,2.384a8.6,8.6,0,0,1,2.772,6.893,9.073,9.073,0,0,1-1.891,5.821,9.271,9.271,0,0,1-5.325,3.2,5.786,5.786,0,0,1,2.469.946,8.819,8.819,0,0,1,2.083,2.189l2.664,3.823A4,4,0,0,1,497.135,604.505Zm-9.3-15.249a3.052,3.052,0,0,0,1.137-2.662,3.165,3.165,0,0,0-1.137-2.728,6.485,6.485,0,0,0-3.759-.838h-5.5v7.045h5.5A6.619,6.619,0,0,0,487.836,589.256Z" fill="#e1e9ef"/>
        <path id="Path_1654" data-name="Path 1654" d="M506.605,606.545a3.857,3.857,0,0,1-1.052-2.856v-22.98a3.8,3.8,0,0,1,1.052-2.814,3.86,3.86,0,0,1,2.856-1.051,4,4,0,0,1,2.921,1.051,3.761,3.761,0,0,1,1.073,2.814v22.98a3.815,3.815,0,0,1-1.073,2.856,3.993,3.993,0,0,1-2.921,1.053A3.857,3.857,0,0,1,506.605,606.545Z" fill="#e1e9ef"/>
        <path id="Path_1655" data-name="Path 1655" d="M559.718,593.166a2.452,2.452,0,0,1,.729,1.8,2.524,2.524,0,0,1-.729,1.826,2.42,2.42,0,0,1-1.8.752H552.5v5.369a2.485,2.485,0,0,1-.71,1.8,2.545,2.545,0,0,1-4.36-1.8v-5.369h-5.411a2.413,2.413,0,0,1-1.8-.752,2.517,2.517,0,0,1-.73-1.826,2.5,2.5,0,0,1,2.534-2.534h5.411v-5.411a2.535,2.535,0,1,1,5.07,0v5.411h5.411A2.451,2.451,0,0,1,559.718,593.166Z" fill="#e1e9ef"/>
      </g>
      <circle id="Ellipse_109" data-name="Ellipse 109" cx="17.852" cy="17.852" r="17.852" transform="translate(579.792 606.995) rotate(-76.79)" fill="#e1e9ef"/>
      <path id="Path_1656" data-name="Path 1656" d="M605.2,562a12.26,12.26,0,0,0-3.573,7.874,1.567,1.567,0,0,0,1.653,1.652,12.288,12.288,0,0,0,11.446-11.446,1.566,1.566,0,0,0-1.653-1.652A12.251,12.251,0,0,0,605.2,562Z" fill="#e1e9ef"/>
    </g>
  </g>
</svg>
